<svg width="248" height="76" viewBox="0 0 248 76" fill="none" xmlns="http://www.w3.org/2000/svg">
<path d="M1.42123 1.84724e-05C0.636326 1.84038e-05 3.16696e-05 0.654371 3.1599e-05 1.46156C3.15285e-05 2.26874 0.636326 2.9231 1.42123 2.9231C2.20614 2.9231 2.84244 2.26874 2.84244 1.46156C2.84244 0.654372 2.20614 1.8541e-05 1.42123 1.84724e-05Z" fill="#929BFF"/>
<path d="M17.765 1.84724e-05C16.9801 1.84038e-05 16.3438 0.654371 16.3438 1.46156C16.3438 2.26874 16.9801 2.9231 17.765 2.9231C18.5499 2.9231 19.1862 2.26874 19.1862 1.46156C19.1862 0.654372 18.5499 1.8541e-05 17.765 1.84724e-05Z" fill="#929BFF"/>
<path d="M34.1088 1.84724e-05C33.3239 1.84038e-05 32.6876 0.654371 32.6876 1.46156C32.6876 2.26874 33.3239 2.9231 34.1088 2.9231C34.8937 2.9231 35.53 2.26874 35.53 1.46156C35.53 0.654372 34.8937 1.8541e-05 34.1088 1.84724e-05Z" fill="#929BFF"/>
<path d="M50.4528 1.84724e-05C49.6679 1.84038e-05 49.0316 0.654371 49.0316 1.46156C49.0316 2.26874 49.6679 2.9231 50.4528 2.9231C51.2377 2.9231 51.874 2.26874 51.874 1.46156C51.874 0.654372 51.2377 1.8541e-05 50.4528 1.84724e-05Z" fill="#929BFF"/>
<path d="M66.7966 1.84724e-05C66.0117 1.84038e-05 65.3754 0.654371 65.3754 1.46156C65.3754 2.26874 66.0117 2.9231 66.7966 2.9231C67.5815 2.9231 68.2178 2.26874 68.2178 1.46156C68.2178 0.654372 67.5815 1.8541e-05 66.7966 1.84724e-05Z" fill="#929BFF"/>
<path d="M83.1404 1.84724e-05C82.3554 1.84038e-05 81.7191 0.654371 81.7191 1.46156C81.7191 2.26874 82.3554 2.9231 83.1404 2.9231C83.9253 2.9231 84.5616 2.26874 84.5616 1.46156C84.5616 0.654372 83.9253 1.8541e-05 83.1404 1.84724e-05Z" fill="#929BFF"/>
<path d="M99.4843 1.84724e-05C98.6994 1.84038e-05 98.0631 0.654371 98.0631 1.46156C98.0631 2.26874 98.6994 2.9231 99.4843 2.9231C100.269 2.9231 100.906 2.26874 100.906 1.46156C100.906 0.654372 100.269 1.8541e-05 99.4843 1.84724e-05Z" fill="#929BFF"/>
<path d="M115.828 1.84724e-05C115.043 1.84038e-05 114.407 0.654371 114.407 1.46156C114.407 2.26874 115.043 2.9231 115.828 2.9231C116.613 2.9231 117.249 2.26874 117.249 1.46156C117.249 0.654372 116.613 1.8541e-05 115.828 1.84724e-05Z" fill="#929BFF"/>
<path d="M132.172 1.84724e-05C131.387 1.84038e-05 130.751 0.654371 130.751 1.46156C130.751 2.26874 131.387 2.9231 132.172 2.9231C132.957 2.9231 133.593 2.26874 133.593 1.46156C133.593 0.654372 132.957 1.8541e-05 132.172 1.84724e-05Z" fill="#929BFF"/>
<path d="M148.516 1.84724e-05C147.731 1.84038e-05 147.094 0.654371 147.094 1.46156C147.094 2.26874 147.731 2.9231 148.516 2.9231C149.301 2.9231 149.937 2.26874 149.937 1.46156C149.937 0.654372 149.301 1.8541e-05 148.516 1.84724e-05Z" fill="#929BFF"/>
<path d="M164.86 1.84724e-05C164.075 1.84038e-05 163.438 0.654371 163.438 1.46156C163.438 2.26874 164.075 2.9231 164.86 2.9231C165.645 2.9231 166.281 2.26874 166.281 1.46156C166.281 0.654372 165.645 1.8541e-05 164.86 1.84724e-05Z" fill="#929BFF"/>
<path d="M181.203 1.84724e-05C180.419 1.84038e-05 179.782 0.654371 179.782 1.46156C179.782 2.26874 180.419 2.9231 181.203 2.9231C181.988 2.9231 182.625 2.26874 182.625 1.46156C182.625 0.654372 181.988 1.8541e-05 181.203 1.84724e-05Z" fill="#929BFF"/>
<path d="M197.547 1.84724e-05C196.762 1.84038e-05 196.126 0.654371 196.126 1.46156C196.126 2.26874 196.762 2.9231 197.547 2.9231C198.332 2.9231 198.968 2.26874 198.968 1.46156C198.968 0.654372 198.332 1.8541e-05 197.547 1.84724e-05Z" fill="#929BFF"/>
<path d="M213.891 1.84724e-05C213.106 1.84038e-05 212.47 0.654371 212.47 1.46156C212.47 2.26874 213.106 2.9231 213.891 2.9231C214.676 2.9231 215.312 2.26874 215.312 1.46156C215.312 0.654372 214.676 1.8541e-05 213.891 1.84724e-05Z" fill="#929BFF"/>
<path d="M230.235 1.84724e-05C229.45 1.84038e-05 228.814 0.654371 228.814 1.46156C228.814 2.26874 229.45 2.9231 230.235 2.9231C231.02 2.9231 231.656 2.26874 231.656 1.46156C231.656 0.654372 231.02 1.8541e-05 230.235 1.84724e-05Z" fill="#929BFF"/>
<path d="M246.579 1.84724e-05C245.794 1.84038e-05 245.158 0.654371 245.158 1.46156C245.158 2.26874 245.794 2.9231 246.579 2.9231C247.364 2.9231 248 2.26874 248 1.46156C248 0.654372 247.364 1.8541e-05 246.579 1.84724e-05Z" fill="#929BFF"/>
<path d="M1.42123 18.2693C0.636326 18.2693 3.16696e-05 18.9237 3.1599e-05 19.7308C3.15285e-05 20.538 0.636326 21.1924 1.42123 21.1924C2.20614 21.1924 2.84244 20.538 2.84244 19.7308C2.84244 18.9237 2.20614 18.2693 1.42123 18.2693Z" fill="#929BFF"/>
<path d="M17.765 18.2693C16.9801 18.2693 16.3438 18.9237 16.3438 19.7308C16.3438 20.538 16.9801 21.1924 17.765 21.1924C18.5499 21.1924 19.1862 20.538 19.1862 19.7308C19.1862 18.9237 18.5499 18.2693 17.765 18.2693Z" fill="#929BFF"/>
<path d="M34.1088 18.2693C33.3239 18.2693 32.6876 18.9237 32.6876 19.7308C32.6876 20.538 33.3239 21.1924 34.1088 21.1924C34.8937 21.1924 35.53 20.538 35.53 19.7308C35.53 18.9237 34.8937 18.2693 34.1088 18.2693Z" fill="#929BFF"/>
<path d="M50.4528 18.2693C49.6679 18.2693 49.0316 18.9237 49.0316 19.7308C49.0316 20.538 49.6679 21.1924 50.4528 21.1924C51.2377 21.1924 51.874 20.538 51.874 19.7308C51.874 18.9237 51.2377 18.2693 50.4528 18.2693Z" fill="#929BFF"/>
<path d="M66.7966 18.2693C66.0117 18.2693 65.3754 18.9237 65.3754 19.7308C65.3754 20.538 66.0117 21.1924 66.7966 21.1924C67.5815 21.1924 68.2178 20.538 68.2178 19.7308C68.2178 18.9237 67.5815 18.2693 66.7966 18.2693Z" fill="#929BFF"/>
<path d="M83.1404 18.2693C82.3554 18.2693 81.7191 18.9237 81.7191 19.7308C81.7191 20.538 82.3554 21.1924 83.1404 21.1924C83.9253 21.1924 84.5616 20.538 84.5616 19.7308C84.5616 18.9237 83.9253 18.2693 83.1404 18.2693Z" fill="#929BFF"/>
<path d="M99.4843 18.2693C98.6994 18.2693 98.0631 18.9237 98.0631 19.7308C98.0631 20.538 98.6994 21.1924 99.4843 21.1924C100.269 21.1924 100.906 20.538 100.906 19.7308C100.906 18.9237 100.269 18.2693 99.4843 18.2693Z" fill="#929BFF"/>
<path d="M115.828 18.2693C115.043 18.2693 114.407 18.9237 114.407 19.7308C114.407 20.538 115.043 21.1924 115.828 21.1924C116.613 21.1924 117.249 20.538 117.249 19.7308C117.249 18.9237 116.613 18.2693 115.828 18.2693Z" fill="#929BFF"/>
<path d="M132.172 18.2693C131.387 18.2693 130.751 18.9237 130.751 19.7308C130.751 20.538 131.387 21.1924 132.172 21.1924C132.957 21.1924 133.593 20.538 133.593 19.7308C133.593 18.9237 132.957 18.2693 132.172 18.2693Z" fill="#929BFF"/>
<path d="M148.516 18.2693C147.731 18.2693 147.094 18.9237 147.094 19.7308C147.094 20.538 147.731 21.1924 148.516 21.1924C149.301 21.1924 149.937 20.538 149.937 19.7308C149.937 18.9237 149.301 18.2693 148.516 18.2693Z" fill="#929BFF"/>
<path d="M164.86 18.2693C164.075 18.2693 163.438 18.9237 163.438 19.7308C163.438 20.538 164.075 21.1924 164.86 21.1924C165.645 21.1924 166.281 20.538 166.281 19.7308C166.281 18.9237 165.645 18.2693 164.86 18.2693Z" fill="#929BFF"/>
<path d="M181.203 18.2693C180.419 18.2693 179.782 18.9237 179.782 19.7308C179.782 20.538 180.419 21.1924 181.203 21.1924C181.988 21.1924 182.625 20.538 182.625 19.7308C182.625 18.9237 181.988 18.2693 181.203 18.2693Z" fill="#929BFF"/>
<path d="M197.547 18.2693C196.762 18.2693 196.126 18.9237 196.126 19.7308C196.126 20.538 196.762 21.1924 197.547 21.1924C198.332 21.1924 198.968 20.538 198.968 19.7308C198.968 18.9237 198.332 18.2693 197.547 18.2693Z" fill="#929BFF"/>
<path d="M213.891 18.2693C213.106 18.2693 212.47 18.9237 212.47 19.7308C212.47 20.538 213.106 21.1924 213.891 21.1924C214.676 21.1924 215.312 20.538 215.312 19.7308C215.312 18.9237 214.676 18.2693 213.891 18.2693Z" fill="#929BFF"/>
<path d="M230.235 18.2693C229.45 18.2693 228.814 18.9237 228.814 19.7308C228.814 20.538 229.45 21.1924 230.235 21.1924C231.02 21.1924 231.656 20.538 231.656 19.7308C231.656 18.9237 231.02 18.2693 230.235 18.2693Z" fill="#929BFF"/>
<path d="M246.579 18.2693C245.794 18.2693 245.158 18.9237 245.158 19.7308C245.158 20.538 245.794 21.1924 246.579 21.1924C247.364 21.1924 248 20.538 248 19.7308C248 18.9237 247.364 18.2693 246.579 18.2693Z" fill="#929BFF"/>
<path d="M1.42123 36.5385C0.636326 36.5385 3.16696e-05 37.1928 3.1599e-05 38C3.15285e-05 38.8072 0.636326 39.4615 1.42123 39.4615C2.20614 39.4615 2.84244 38.8072 2.84244 38C2.84244 37.1928 2.20614 36.5385 1.42123 36.5385Z" fill="#929BFF"/>
<path d="M17.765 36.5385C16.9801 36.5385 16.3438 37.1928 16.3438 38C16.3438 38.8072 16.9801 39.4615 17.765 39.4615C18.5499 39.4615 19.1862 38.8072 19.1862 38C19.1862 37.1928 18.5499 36.5385 17.765 36.5385Z" fill="#929BFF"/>
<path d="M34.1088 36.5385C33.3239 36.5385 32.6876 37.1928 32.6876 38C32.6876 38.8072 33.3239 39.4615 34.1088 39.4615C34.8937 39.4615 35.53 38.8072 35.53 38C35.53 37.1928 34.8937 36.5385 34.1088 36.5385Z" fill="#929BFF"/>
<path d="M50.4528 36.5385C49.6679 36.5385 49.0316 37.1928 49.0316 38C49.0316 38.8072 49.6679 39.4615 50.4528 39.4615C51.2377 39.4615 51.874 38.8072 51.874 38C51.874 37.1928 51.2377 36.5385 50.4528 36.5385Z" fill="#929BFF"/>
<path d="M66.7966 36.5385C66.0117 36.5385 65.3754 37.1928 65.3754 38C65.3754 38.8072 66.0117 39.4615 66.7966 39.4615C67.5815 39.4615 68.2178 38.8072 68.2178 38C68.2178 37.1928 67.5815 36.5385 66.7966 36.5385Z" fill="#929BFF"/>
<path d="M83.1404 36.5385C82.3554 36.5385 81.7191 37.1928 81.7191 38C81.7191 38.8072 82.3554 39.4615 83.1404 39.4615C83.9253 39.4615 84.5616 38.8072 84.5616 38C84.5616 37.1928 83.9253 36.5385 83.1404 36.5385Z" fill="#929BFF"/>
<path d="M99.4843 36.5385C98.6994 36.5385 98.0631 37.1928 98.0631 38C98.0631 38.8072 98.6994 39.4615 99.4843 39.4615C100.269 39.4615 100.906 38.8072 100.906 38C100.906 37.1928 100.269 36.5385 99.4843 36.5385Z" fill="#929BFF"/>
<path d="M115.828 36.5385C115.043 36.5385 114.407 37.1928 114.407 38C114.407 38.8072 115.043 39.4615 115.828 39.4615C116.613 39.4615 117.249 38.8072 117.249 38C117.249 37.1928 116.613 36.5385 115.828 36.5385Z" fill="#929BFF"/>
<path d="M132.172 36.5385C131.387 36.5385 130.751 37.1928 130.751 38C130.751 38.8072 131.387 39.4615 132.172 39.4615C132.957 39.4615 133.593 38.8072 133.593 38C133.593 37.1928 132.957 36.5385 132.172 36.5385Z" fill="#929BFF"/>
<path d="M148.516 36.5385C147.731 36.5385 147.094 37.1928 147.094 38C147.094 38.8072 147.731 39.4615 148.516 39.4615C149.301 39.4615 149.937 38.8072 149.937 38C149.937 37.1928 149.301 36.5385 148.516 36.5385Z" fill="#929BFF"/>
<path d="M164.86 36.5385C164.075 36.5385 163.438 37.1928 163.438 38C163.438 38.8072 164.075 39.4615 164.86 39.4615C165.645 39.4615 166.281 38.8072 166.281 38C166.281 37.1928 165.645 36.5385 164.86 36.5385Z" fill="#929BFF"/>
<path d="M181.203 36.5385C180.419 36.5385 179.782 37.1928 179.782 38C179.782 38.8072 180.419 39.4615 181.203 39.4615C181.988 39.4615 182.625 38.8072 182.625 38C182.625 37.1928 181.988 36.5385 181.203 36.5385Z" fill="#929BFF"/>
<path d="M197.547 36.5385C196.762 36.5385 196.126 37.1928 196.126 38C196.126 38.8072 196.762 39.4615 197.547 39.4615C198.332 39.4615 198.968 38.8072 198.968 38C198.968 37.1928 198.332 36.5385 197.547 36.5385Z" fill="#929BFF"/>
<path d="M213.891 36.5385C213.106 36.5385 212.47 37.1928 212.47 38C212.47 38.8072 213.106 39.4615 213.891 39.4615C214.676 39.4615 215.312 38.8072 215.312 38C215.312 37.1928 214.676 36.5385 213.891 36.5385Z" fill="#929BFF"/>
<path d="M230.235 36.5385C229.45 36.5385 228.814 37.1928 228.814 38C228.814 38.8072 229.45 39.4615 230.235 39.4615C231.02 39.4615 231.656 38.8072 231.656 38C231.656 37.1928 231.02 36.5385 230.235 36.5385Z" fill="#929BFF"/>
<path d="M246.579 36.5385C245.794 36.5385 245.158 37.1928 245.158 38C245.158 38.8072 245.794 39.4615 246.579 39.4615C247.364 39.4615 248 38.8072 248 38C248 37.1928 247.364 36.5385 246.579 36.5385Z" fill="#929BFF"/>
<path d="M1.42123 54.8076C0.636326 54.8076 3.16696e-05 55.462 3.1599e-05 56.2692C3.15285e-05 57.0764 0.636326 57.7307 1.42123 57.7307C2.20614 57.7307 2.84244 57.0764 2.84244 56.2692C2.84244 55.462 2.20614 54.8076 1.42123 54.8076Z" fill="#929BFF"/>
<path d="M17.765 54.8076C16.9801 54.8076 16.3438 55.462 16.3438 56.2692C16.3438 57.0764 16.9801 57.7307 17.765 57.7307C18.5499 57.7307 19.1862 57.0764 19.1862 56.2692C19.1862 55.462 18.5499 54.8076 17.765 54.8076Z" fill="#929BFF"/>
<path d="M34.1088 54.8076C33.3239 54.8076 32.6876 55.462 32.6876 56.2692C32.6876 57.0764 33.3239 57.7307 34.1088 57.7307C34.8937 57.7307 35.53 57.0764 35.53 56.2692C35.53 55.462 34.8937 54.8076 34.1088 54.8076Z" fill="#929BFF"/>
<path d="M50.4528 54.8076C49.6679 54.8076 49.0316 55.462 49.0316 56.2692C49.0316 57.0764 49.6679 57.7307 50.4528 57.7307C51.2377 57.7307 51.874 57.0764 51.874 56.2692C51.874 55.462 51.2377 54.8076 50.4528 54.8076Z" fill="#929BFF"/>
<path d="M66.7966 54.8076C66.0117 54.8076 65.3754 55.462 65.3754 56.2692C65.3754 57.0764 66.0117 57.7307 66.7966 57.7307C67.5815 57.7307 68.2178 57.0764 68.2178 56.2692C68.2178 55.462 67.5815 54.8076 66.7966 54.8076Z" fill="#929BFF"/>
<path d="M83.1404 54.8076C82.3554 54.8076 81.7191 55.462 81.7191 56.2692C81.7191 57.0764 82.3554 57.7307 83.1404 57.7307C83.9253 57.7307 84.5616 57.0764 84.5616 56.2692C84.5616 55.462 83.9253 54.8076 83.1404 54.8076Z" fill="#929BFF"/>
<path d="M99.4843 54.8076C98.6994 54.8076 98.0631 55.462 98.0631 56.2692C98.0631 57.0764 98.6994 57.7307 99.4843 57.7307C100.269 57.7307 100.906 57.0764 100.906 56.2692C100.906 55.462 100.269 54.8076 99.4843 54.8076Z" fill="#929BFF"/>
<path d="M115.828 54.8076C115.043 54.8076 114.407 55.462 114.407 56.2692C114.407 57.0764 115.043 57.7307 115.828 57.7307C116.613 57.7307 117.249 57.0764 117.249 56.2692C117.249 55.462 116.613 54.8076 115.828 54.8076Z" fill="#929BFF"/>
<path d="M132.172 54.8076C131.387 54.8076 130.751 55.462 130.751 56.2692C130.751 57.0764 131.387 57.7307 132.172 57.7307C132.957 57.7307 133.593 57.0764 133.593 56.2692C133.593 55.462 132.957 54.8076 132.172 54.8076Z" fill="#929BFF"/>
<path d="M148.516 54.8076C147.731 54.8076 147.094 55.462 147.094 56.2692C147.094 57.0764 147.731 57.7307 148.516 57.7307C149.301 57.7307 149.937 57.0764 149.937 56.2692C149.937 55.462 149.301 54.8076 148.516 54.8076Z" fill="#929BFF"/>
<path d="M164.86 54.8076C164.075 54.8076 163.438 55.462 163.438 56.2692C163.438 57.0764 164.075 57.7307 164.86 57.7307C165.645 57.7307 166.281 57.0764 166.281 56.2692C166.281 55.462 165.645 54.8076 164.86 54.8076Z" fill="#929BFF"/>
<path d="M181.203 54.8076C180.419 54.8076 179.782 55.462 179.782 56.2692C179.782 57.0764 180.419 57.7307 181.203 57.7307C181.988 57.7307 182.625 57.0764 182.625 56.2692C182.625 55.462 181.988 54.8076 181.203 54.8076Z" fill="#929BFF"/>
<path d="M197.547 54.8076C196.762 54.8076 196.126 55.462 196.126 56.2692C196.126 57.0764 196.762 57.7307 197.547 57.7307C198.332 57.7307 198.968 57.0764 198.968 56.2692C198.968 55.462 198.332 54.8076 197.547 54.8076Z" fill="#929BFF"/>
<path d="M213.891 54.8076C213.106 54.8076 212.47 55.462 212.47 56.2692C212.47 57.0764 213.106 57.7307 213.891 57.7307C214.676 57.7307 215.312 57.0764 215.312 56.2692C215.312 55.462 214.676 54.8076 213.891 54.8076Z" fill="#929BFF"/>
<path d="M230.235 54.8076C229.45 54.8076 228.814 55.462 228.814 56.2692C228.814 57.0764 229.45 57.7307 230.235 57.7307C231.02 57.7307 231.656 57.0764 231.656 56.2692C231.656 55.462 231.02 54.8076 230.235 54.8076Z" fill="#929BFF"/>
<path d="M246.579 54.8076C245.794 54.8076 245.158 55.462 245.158 56.2692C245.158 57.0764 245.794 57.7307 246.579 57.7307C247.364 57.7307 248 57.0764 248 56.2692C248 55.462 247.364 54.8076 246.579 54.8076Z" fill="#929BFF"/>
<path d="M1.42123 73.0769C0.636326 73.0769 3.16696e-05 73.7313 3.1599e-05 74.5385C3.15285e-05 75.3456 0.636326 76 1.42123 76C2.20614 76 2.84244 75.3456 2.84244 74.5385C2.84244 73.7313 2.20614 73.0769 1.42123 73.0769Z" fill="#929BFF"/>
<path d="M17.765 73.0769C16.9801 73.0769 16.3438 73.7313 16.3438 74.5385C16.3438 75.3456 16.9801 76 17.765 76C18.5499 76 19.1862 75.3456 19.1862 74.5385C19.1862 73.7313 18.5499 73.0769 17.765 73.0769Z" fill="#929BFF"/>
<path d="M34.1088 73.0769C33.3239 73.0769 32.6876 73.7313 32.6876 74.5385C32.6876 75.3456 33.3239 76 34.1088 76C34.8937 76 35.53 75.3456 35.53 74.5385C35.53 73.7313 34.8937 73.0769 34.1088 73.0769Z" fill="#929BFF"/>
<path d="M50.4528 73.0769C49.6679 73.0769 49.0316 73.7313 49.0316 74.5385C49.0316 75.3456 49.6679 76 50.4528 76C51.2377 76 51.874 75.3456 51.874 74.5385C51.874 73.7313 51.2377 73.0769 50.4528 73.0769Z" fill="#929BFF"/>
<path d="M66.7966 73.0769C66.0117 73.0769 65.3754 73.7313 65.3754 74.5385C65.3754 75.3456 66.0117 76 66.7966 76C67.5815 76 68.2178 75.3456 68.2178 74.5385C68.2178 73.7313 67.5815 73.0769 66.7966 73.0769Z" fill="#929BFF"/>
<path d="M83.1404 73.0769C82.3554 73.0769 81.7191 73.7313 81.7191 74.5385C81.7191 75.3456 82.3554 76 83.1404 76C83.9253 76 84.5616 75.3456 84.5616 74.5385C84.5616 73.7313 83.9253 73.0769 83.1404 73.0769Z" fill="#929BFF"/>
<path d="M99.4843 73.0769C98.6994 73.0769 98.0631 73.7313 98.0631 74.5385C98.0631 75.3456 98.6994 76 99.4843 76C100.269 76 100.906 75.3456 100.906 74.5385C100.906 73.7313 100.269 73.0769 99.4843 73.0769Z" fill="#929BFF"/>
<path d="M115.828 73.0769C115.043 73.0769 114.407 73.7313 114.407 74.5385C114.407 75.3456 115.043 76 115.828 76C116.613 76 117.249 75.3456 117.249 74.5385C117.249 73.7313 116.613 73.0769 115.828 73.0769Z" fill="#929BFF"/>
<path d="M132.172 73.0769C131.387 73.0769 130.751 73.7313 130.751 74.5385C130.751 75.3456 131.387 76 132.172 76C132.957 76 133.593 75.3456 133.593 74.5385C133.593 73.7313 132.957 73.0769 132.172 73.0769Z" fill="#929BFF"/>
<path d="M148.516 73.0769C147.731 73.0769 147.094 73.7313 147.094 74.5385C147.094 75.3456 147.731 76 148.516 76C149.301 76 149.937 75.3456 149.937 74.5385C149.937 73.7313 149.301 73.0769 148.516 73.0769Z" fill="#929BFF"/>
<path d="M164.86 73.0769C164.075 73.0769 163.438 73.7313 163.438 74.5385C163.438 75.3456 164.075 76 164.86 76C165.645 76 166.281 75.3456 166.281 74.5385C166.281 73.7313 165.645 73.0769 164.86 73.0769Z" fill="#929BFF"/>
<path d="M181.203 73.0769C180.419 73.0769 179.782 73.7313 179.782 74.5385C179.782 75.3456 180.419 76 181.203 76C181.988 76 182.625 75.3456 182.625 74.5385C182.625 73.7313 181.988 73.0769 181.203 73.0769Z" fill="#929BFF"/>
<path d="M197.547 73.0769C196.762 73.0769 196.126 73.7313 196.126 74.5385C196.126 75.3456 196.762 76 197.547 76C198.332 76 198.968 75.3456 198.968 74.5385C198.968 73.7313 198.332 73.0769 197.547 73.0769Z" fill="#929BFF"/>
<path d="M213.891 73.0769C213.106 73.0769 212.47 73.7313 212.47 74.5385C212.47 75.3456 213.106 76 213.891 76C214.676 76 215.312 75.3456 215.312 74.5385C215.312 73.7313 214.676 73.0769 213.891 73.0769Z" fill="#929BFF"/>
<path d="M230.235 73.0769C229.45 73.0769 228.814 73.7313 228.814 74.5385C228.814 75.3456 229.45 76 230.235 76C231.02 76 231.656 75.3456 231.656 74.5385C231.656 73.7313 231.02 73.0769 230.235 73.0769Z" fill="#929BFF"/>
<path d="M246.579 73.0769C245.794 73.0769 245.158 73.7313 245.158 74.5385C245.158 75.3456 245.794 76 246.579 76C247.364 76 248 75.3456 248 74.5385C248 73.7313 247.364 73.0769 246.579 73.0769Z" fill="#929BFF"/>
</svg>
