<svg
    width="132"
    height="204"
    viewBox="0 0 132 204"
    fill="none"
    xmlns="http://www.w3.org/2000/svg"
  >
    <path
      d="M-7.82524e-05 202.831C-7.82806e-05 203.477 1.12928 204 2.52242 204C3.91556 204 5.04492 203.477 5.04492 202.831C5.04492 202.185 3.91556 201.662 2.52242 201.662C1.12928 201.662 -7.82242e-05 202.185 -7.82524e-05 202.831Z"
      fill="#929BFF"
    />
    <path
      d="M-7.82524e-05 189.387C-7.82806e-05 190.032 1.12928 190.556 2.52242 190.556C3.91556 190.556 5.04492 190.032 5.04492 189.387C5.04492 188.741 3.91556 188.218 2.52242 188.218C1.12928 188.218 -7.82242e-05 188.741 -7.82524e-05 189.387Z"
      fill="#929BFF"
    />
    <path
      d="M-7.82524e-05 175.943C-7.82806e-05 176.588 1.12928 177.112 2.52242 177.112C3.91556 177.112 5.04492 176.588 5.04492 175.943C5.04492 175.297 3.91556 174.774 2.52242 174.774C1.12928 174.774 -7.82242e-05 175.297 -7.82524e-05 175.943Z"
      fill="#929BFF"
    />
    <path
      d="M-7.82524e-05 162.499C-7.82806e-05 163.144 1.12928 163.668 2.52242 163.668C3.91556 163.668 5.04492 163.144 5.04492 162.499C5.04492 161.853 3.91556 161.329 2.52242 161.329C1.12928 161.329 -7.82242e-05 161.853 -7.82524e-05 162.499Z"
      fill="#929BFF"
    />
    <path
      d="M-7.82524e-05 149.054C-7.82806e-05 149.7 1.12928 150.223 2.52242 150.223C3.91556 150.223 5.04492 149.7 5.04492 149.054C5.04492 148.409 3.91556 147.885 2.52242 147.885C1.12928 147.885 -7.82242e-05 148.409 -7.82524e-05 149.054Z"
      fill="#929BFF"
    />
    <path
      d="M-7.82524e-05 135.61C-7.82806e-05 136.256 1.12928 136.779 2.52242 136.779C3.91556 136.779 5.04492 136.256 5.04492 135.61C5.04492 134.965 3.91556 134.441 2.52242 134.441C1.12928 134.441 -7.82242e-05 134.965 -7.82524e-05 135.61Z"
      fill="#929BFF"
    />
    <path
      d="M-7.82524e-05 122.166C-7.82806e-05 122.812 1.12928 123.335 2.52242 123.335C3.91556 123.335 5.04492 122.812 5.04492 122.166C5.04492 121.52 3.91556 120.997 2.52242 120.997C1.12928 120.997 -7.82242e-05 121.52 -7.82524e-05 122.166Z"
      fill="#929BFF"
    />
    <path
      d="M-7.82524e-05 108.722C-7.82806e-05 109.368 1.12928 109.891 2.52242 109.891C3.91556 109.891 5.04492 109.368 5.04492 108.722C5.04492 108.076 3.91556 107.553 2.52242 107.553C1.12928 107.553 -7.82242e-05 108.076 -7.82524e-05 108.722Z"
      fill="#929BFF"
    />
    <path
      d="M-7.82524e-05 95.2779C-7.82806e-05 95.9236 1.12928 96.447 2.52242 96.447C3.91556 96.447 5.04492 95.9236 5.04492 95.2779C5.04492 94.6323 3.91556 94.1089 2.52242 94.1089C1.12928 94.1089 -7.82242e-05 94.6323 -7.82524e-05 95.2779Z"
      fill="#929BFF"
    />
    <path
      d="M-7.82524e-05 81.8338C-7.82806e-05 82.4795 1.12928 83.0029 2.52242 83.0029C3.91556 83.0029 5.04492 82.4795 5.04492 81.8338C5.04492 81.1882 3.91556 80.6648 2.52242 80.6648C1.12928 80.6648 -7.82242e-05 81.1882 -7.82524e-05 81.8338Z"
      fill="#929BFF"
    />
    <path
      d="M-7.82524e-05 68.3896C-7.82806e-05 69.0353 1.12928 69.5587 2.52242 69.5587C3.91556 69.5587 5.04492 69.0353 5.04492 68.3896C5.04492 67.744 3.91556 67.2206 2.52242 67.2206C1.12928 67.2206 -7.82242e-05 67.744 -7.82524e-05 68.3896Z"
      fill="#929BFF"
    />
    <path
      d="M-7.82524e-05 54.9455C-7.82806e-05 55.5912 1.12928 56.1146 2.52242 56.1146C3.91556 56.1146 5.04492 55.5912 5.04492 54.9455C5.04492 54.2999 3.91556 53.7765 2.52242 53.7765C1.12928 53.7765 -7.82242e-05 54.2999 -7.82524e-05 54.9455Z"
      fill="#929BFF"
    />
    <path
      d="M-7.82524e-05 41.5015C-7.82806e-05 42.1471 1.12928 42.6705 2.52242 42.6705C3.91556 42.6705 5.04492 42.1471 5.04492 41.5015C5.04492 40.8558 3.91556 40.3324 2.52242 40.3324C1.12928 40.3324 -7.82242e-05 40.8558 -7.82524e-05 41.5015Z"
      fill="#929BFF"
    />
    <path
      d="M-7.82524e-05 28.0574C-7.82806e-05 28.703 1.12928 29.2264 2.52242 29.2264C3.91556 29.2264 5.04492 28.703 5.04492 28.0574C5.04492 27.4117 3.91556 26.8883 2.52242 26.8883C1.12928 26.8883 -7.82242e-05 27.4117 -7.82524e-05 28.0574Z"
      fill="#929BFF"
    />
    <path
      d="M-7.82524e-05 14.6133C-7.82806e-05 15.2589 1.12928 15.7823 2.52242 15.7823C3.91556 15.7823 5.04492 15.2589 5.04492 14.6133C5.04492 13.9676 3.91556 13.4442 2.52242 13.4442C1.12928 13.4442 -7.82242e-05 13.9676 -7.82524e-05 14.6133Z"
      fill="#929BFF"
    />
    <path
      d="M-7.82524e-05 1.16909C-7.82806e-05 1.81474 1.12928 2.33814 2.52242 2.33814C3.91556 2.33814 5.04492 1.81474 5.04492 1.16909C5.04492 0.523439 3.91556 -4.9366e-08 2.52242 -1.10262e-07C1.12928 -1.71158e-07 -7.82242e-05 0.523439 -7.82524e-05 1.16909Z"
      fill="#929BFF"
    />
    <path
      d="M31.5312 202.831C31.5312 203.477 32.6605 204 34.0537 204C35.4468 204 36.5762 203.477 36.5762 202.831C36.5762 202.185 35.4468 201.662 34.0537 201.662C32.6605 201.662 31.5312 202.185 31.5312 202.831Z"
      fill="#929BFF"
    />
    <path
      d="M31.5312 189.387C31.5312 190.032 32.6605 190.556 34.0537 190.556C35.4468 190.556 36.5762 190.032 36.5762 189.387C36.5762 188.741 35.4468 188.218 34.0537 188.218C32.6605 188.218 31.5312 188.741 31.5312 189.387Z"
      fill="#929BFF"
    />
    <path
      d="M31.5312 175.943C31.5312 176.588 32.6605 177.112 34.0537 177.112C35.4468 177.112 36.5762 176.588 36.5762 175.943C36.5762 175.297 35.4468 174.774 34.0537 174.774C32.6605 174.774 31.5312 175.297 31.5312 175.943Z"
      fill="#929BFF"
    />
    <path
      d="M31.5312 162.499C31.5312 163.144 32.6605 163.668 34.0537 163.668C35.4468 163.668 36.5762 163.144 36.5762 162.499C36.5762 161.853 35.4468 161.329 34.0537 161.329C32.6605 161.329 31.5312 161.853 31.5312 162.499Z"
      fill="#929BFF"
    />
    <path
      d="M31.5312 149.054C31.5312 149.7 32.6605 150.223 34.0537 150.223C35.4468 150.223 36.5762 149.7 36.5762 149.054C36.5762 148.409 35.4468 147.885 34.0537 147.885C32.6605 147.885 31.5312 148.409 31.5312 149.054Z"
      fill="#929BFF"
    />
    <path
      d="M31.5312 135.61C31.5312 136.256 32.6605 136.779 34.0537 136.779C35.4468 136.779 36.5762 136.256 36.5762 135.61C36.5762 134.965 35.4468 134.441 34.0537 134.441C32.6605 134.441 31.5312 134.965 31.5312 135.61Z"
      fill="#929BFF"
    />
    <path
      d="M31.5312 122.166C31.5312 122.812 32.6605 123.335 34.0537 123.335C35.4468 123.335 36.5762 122.812 36.5762 122.166C36.5762 121.52 35.4468 120.997 34.0537 120.997C32.6605 120.997 31.5312 121.52 31.5312 122.166Z"
      fill="#929BFF"
    />
    <path
      d="M31.5312 108.722C31.5312 109.368 32.6605 109.891 34.0537 109.891C35.4468 109.891 36.5762 109.368 36.5762 108.722C36.5762 108.076 35.4468 107.553 34.0537 107.553C32.6605 107.553 31.5312 108.076 31.5312 108.722Z"
      fill="#929BFF"
    />
    <path
      d="M31.5312 95.2779C31.5312 95.9236 32.6605 96.447 34.0537 96.447C35.4468 96.447 36.5762 95.9236 36.5762 95.2779C36.5762 94.6323 35.4468 94.1089 34.0537 94.1089C32.6605 94.1089 31.5312 94.6323 31.5312 95.2779Z"
      fill="#929BFF"
    />
    <path
      d="M31.5312 81.8338C31.5312 82.4795 32.6605 83.0029 34.0537 83.0029C35.4468 83.0029 36.5762 82.4795 36.5762 81.8338C36.5762 81.1882 35.4468 80.6648 34.0537 80.6648C32.6605 80.6648 31.5312 81.1882 31.5312 81.8338Z"
      fill="#929BFF"
    />
    <path
      d="M31.5312 68.3896C31.5312 69.0353 32.6605 69.5587 34.0537 69.5587C35.4468 69.5587 36.5762 69.0353 36.5762 68.3896C36.5762 67.744 35.4468 67.2206 34.0537 67.2206C32.6605 67.2206 31.5312 67.744 31.5312 68.3896Z"
      fill="#929BFF"
    />
    <path
      d="M31.5312 54.9455C31.5312 55.5912 32.6605 56.1146 34.0537 56.1146C35.4468 56.1146 36.5762 55.5912 36.5762 54.9455C36.5762 54.2999 35.4468 53.7765 34.0537 53.7765C32.6605 53.7765 31.5312 54.2999 31.5312 54.9455Z"
      fill="#929BFF"
    />
    <path
      d="M31.5312 41.5015C31.5312 42.1471 32.6605 42.6705 34.0537 42.6705C35.4468 42.6705 36.5762 42.1471 36.5762 41.5015C36.5762 40.8558 35.4468 40.3324 34.0537 40.3324C32.6605 40.3324 31.5312 40.8558 31.5312 41.5015Z"
      fill="#929BFF"
    />
    <path
      d="M31.5312 28.0574C31.5312 28.703 32.6605 29.2264 34.0537 29.2264C35.4468 29.2264 36.5762 28.703 36.5762 28.0574C36.5762 27.4117 35.4468 26.8883 34.0537 26.8883C32.6605 26.8883 31.5312 27.4117 31.5312 28.0574Z"
      fill="#929BFF"
    />
    <path
      d="M31.5312 14.6133C31.5312 15.2589 32.6605 15.7823 34.0537 15.7823C35.4468 15.7823 36.5762 15.2589 36.5762 14.6133C36.5762 13.9676 35.4468 13.4442 34.0537 13.4442C32.6605 13.4442 31.5312 13.9676 31.5312 14.6133Z"
      fill="#929BFF"
    />
    <path
      d="M31.5312 1.16909C31.5312 1.81474 32.6605 2.33814 34.0537 2.33814C35.4468 2.33814 36.5762 1.81474 36.5762 1.16909C36.5762 0.523439 35.4468 -4.9366e-08 34.0537 -1.10262e-07C32.6605 -1.71158e-07 31.5312 0.523439 31.5312 1.16909Z"
      fill="#929BFF"
    />
    <path
      d="M63.0624 202.831C63.0624 203.477 64.1918 204 65.5849 204C66.9781 204 68.1074 203.477 68.1074 202.831C68.1074 202.185 66.9781 201.662 65.5849 201.662C64.1918 201.662 63.0624 202.185 63.0624 202.831Z"
      fill="#929BFF"
    />
    <path
      d="M63.0624 189.387C63.0624 190.032 64.1918 190.556 65.5849 190.556C66.9781 190.556 68.1074 190.032 68.1074 189.387C68.1074 188.741 66.9781 188.218 65.5849 188.218C64.1918 188.218 63.0624 188.741 63.0624 189.387Z"
      fill="#929BFF"
    />
    <path
      d="M63.0624 175.943C63.0624 176.588 64.1918 177.112 65.5849 177.112C66.9781 177.112 68.1074 176.588 68.1074 175.943C68.1074 175.297 66.9781 174.774 65.5849 174.774C64.1918 174.774 63.0624 175.297 63.0624 175.943Z"
      fill="#929BFF"
    />
    <path
      d="M63.0624 162.499C63.0624 163.144 64.1918 163.668 65.5849 163.668C66.9781 163.668 68.1074 163.144 68.1074 162.499C68.1074 161.853 66.9781 161.329 65.5849 161.329C64.1918 161.329 63.0624 161.853 63.0624 162.499Z"
      fill="#929BFF"
    />
    <path
      d="M63.0624 149.054C63.0624 149.7 64.1918 150.223 65.5849 150.223C66.9781 150.223 68.1074 149.7 68.1074 149.054C68.1074 148.409 66.9781 147.885 65.5849 147.885C64.1918 147.885 63.0624 148.409 63.0624 149.054Z"
      fill="#929BFF"
    />
    <path
      d="M63.0624 135.61C63.0624 136.256 64.1918 136.779 65.5849 136.779C66.9781 136.779 68.1074 136.256 68.1074 135.61C68.1074 134.965 66.9781 134.441 65.5849 134.441C64.1918 134.441 63.0624 134.965 63.0624 135.61Z"
      fill="#929BFF"
    />
    <path
      d="M63.0624 122.166C63.0624 122.812 64.1918 123.335 65.5849 123.335C66.9781 123.335 68.1074 122.812 68.1074 122.166C68.1074 121.52 66.9781 120.997 65.5849 120.997C64.1918 120.997 63.0624 121.52 63.0624 122.166Z"
      fill="#929BFF"
    />
    <path
      d="M63.0624 108.722C63.0624 109.368 64.1918 109.891 65.5849 109.891C66.9781 109.891 68.1074 109.368 68.1074 108.722C68.1074 108.076 66.9781 107.553 65.5849 107.553C64.1918 107.553 63.0624 108.076 63.0624 108.722Z"
      fill="#929BFF"
    />
    <path
      d="M63.0624 95.2779C63.0624 95.9236 64.1918 96.447 65.5849 96.447C66.9781 96.447 68.1074 95.9236 68.1074 95.2779C68.1074 94.6323 66.9781 94.1089 65.5849 94.1089C64.1918 94.1089 63.0624 94.6323 63.0624 95.2779Z"
      fill="#929BFF"
    />
    <path
      d="M63.0624 81.8338C63.0624 82.4795 64.1918 83.0029 65.5849 83.0029C66.9781 83.0029 68.1074 82.4795 68.1074 81.8338C68.1074 81.1882 66.9781 80.6648 65.5849 80.6648C64.1918 80.6648 63.0624 81.1882 63.0624 81.8338Z"
      fill="#929BFF"
    />
    <path
      d="M63.0624 68.3896C63.0624 69.0353 64.1918 69.5587 65.5849 69.5587C66.9781 69.5587 68.1074 69.0353 68.1074 68.3896C68.1074 67.744 66.9781 67.2206 65.5849 67.2206C64.1918 67.2206 63.0624 67.744 63.0624 68.3896Z"
      fill="#929BFF"
    />
    <path
      d="M63.0624 54.9455C63.0624 55.5912 64.1918 56.1146 65.5849 56.1146C66.9781 56.1146 68.1074 55.5912 68.1074 54.9455C68.1074 54.2999 66.9781 53.7765 65.5849 53.7765C64.1918 53.7765 63.0624 54.2999 63.0624 54.9455Z"
      fill="#929BFF"
    />
    <path
      d="M63.0624 41.5015C63.0624 42.1471 64.1918 42.6705 65.5849 42.6705C66.9781 42.6705 68.1074 42.1471 68.1074 41.5015C68.1074 40.8558 66.9781 40.3324 65.5849 40.3324C64.1918 40.3324 63.0624 40.8558 63.0624 41.5015Z"
      fill="#929BFF"
    />
    <path
      d="M63.0624 28.0574C63.0624 28.703 64.1918 29.2264 65.5849 29.2264C66.9781 29.2264 68.1074 28.703 68.1074 28.0574C68.1074 27.4117 66.9781 26.8883 65.5849 26.8883C64.1918 26.8883 63.0624 27.4117 63.0624 28.0574Z"
      fill="#929BFF"
    />
    <path
      d="M63.0624 14.6133C63.0624 15.2589 64.1918 15.7823 65.5849 15.7823C66.9781 15.7823 68.1074 15.2589 68.1074 14.6133C68.1074 13.9676 66.9781 13.4442 65.5849 13.4442C64.1918 13.4442 63.0624 13.9676 63.0624 14.6133Z"
      fill="#929BFF"
    />
    <path
      d="M63.0624 1.16909C63.0624 1.81474 64.1918 2.33814 65.5849 2.33814C66.9781 2.33814 68.1074 1.81474 68.1074 1.16909C68.1074 0.523439 66.9781 -4.9366e-08 65.5849 -1.10262e-07C64.1918 -1.71158e-07 63.0624 0.523439 63.0624 1.16909Z"
      fill="#929BFF"
    />
    <path
      d="M94.5937 202.831C94.5937 203.477 95.723 204 97.1162 204C98.5093 204 99.6387 203.477 99.6387 202.831C99.6387 202.185 98.5093 201.662 97.1162 201.662C95.723 201.662 94.5937 202.185 94.5937 202.831Z"
      fill="#929BFF"
    />
    <path
      d="M94.5937 189.387C94.5937 190.032 95.723 190.556 97.1162 190.556C98.5093 190.556 99.6387 190.032 99.6387 189.387C99.6387 188.741 98.5093 188.218 97.1162 188.218C95.723 188.218 94.5937 188.741 94.5937 189.387Z"
      fill="#929BFF"
    />
    <path
      d="M94.5937 175.943C94.5937 176.588 95.723 177.112 97.1162 177.112C98.5093 177.112 99.6387 176.588 99.6387 175.943C99.6387 175.297 98.5093 174.774 97.1162 174.774C95.723 174.774 94.5937 175.297 94.5937 175.943Z"
      fill="#929BFF"
    />
    <path
      d="M94.5937 162.499C94.5937 163.144 95.723 163.668 97.1162 163.668C98.5093 163.668 99.6387 163.144 99.6387 162.499C99.6387 161.853 98.5093 161.329 97.1162 161.329C95.723 161.329 94.5937 161.853 94.5937 162.499Z"
      fill="#929BFF"
    />
    <path
      d="M94.5937 149.054C94.5937 149.7 95.723 150.223 97.1162 150.223C98.5093 150.223 99.6387 149.7 99.6387 149.054C99.6387 148.409 98.5093 147.885 97.1162 147.885C95.723 147.885 94.5937 148.409 94.5937 149.054Z"
      fill="#929BFF"
    />
    <path
      d="M94.5937 135.61C94.5937 136.256 95.723 136.779 97.1162 136.779C98.5093 136.779 99.6387 136.256 99.6387 135.61C99.6387 134.965 98.5093 134.441 97.1162 134.441C95.723 134.441 94.5937 134.965 94.5937 135.61Z"
      fill="#929BFF"
    />
    <path
      d="M94.5937 122.166C94.5937 122.812 95.723 123.335 97.1162 123.335C98.5093 123.335 99.6387 122.812 99.6387 122.166C99.6387 121.52 98.5093 120.997 97.1162 120.997C95.723 120.997 94.5937 121.52 94.5937 122.166Z"
      fill="#929BFF"
    />
    <path
      d="M94.5937 108.722C94.5937 109.368 95.723 109.891 97.1162 109.891C98.5093 109.891 99.6387 109.368 99.6387 108.722C99.6387 108.076 98.5093 107.553 97.1162 107.553C95.723 107.553 94.5937 108.076 94.5937 108.722Z"
      fill="#929BFF"
    />
    <path
      d="M94.5937 95.2779C94.5937 95.9236 95.723 96.447 97.1162 96.447C98.5093 96.447 99.6387 95.9236 99.6387 95.2779C99.6387 94.6323 98.5093 94.1089 97.1162 94.1089C95.723 94.1089 94.5937 94.6323 94.5937 95.2779Z"
      fill="#929BFF"
    />
    <path
      d="M94.5937 81.8338C94.5937 82.4795 95.723 83.0029 97.1162 83.0029C98.5093 83.0029 99.6387 82.4795 99.6387 81.8338C99.6387 81.1882 98.5093 80.6648 97.1162 80.6648C95.723 80.6648 94.5937 81.1882 94.5937 81.8338Z"
      fill="#929BFF"
    />
    <path
      d="M94.5937 68.3896C94.5937 69.0353 95.723 69.5587 97.1162 69.5587C98.5093 69.5587 99.6387 69.0353 99.6387 68.3896C99.6387 67.744 98.5093 67.2206 97.1162 67.2206C95.723 67.2206 94.5937 67.744 94.5937 68.3896Z"
      fill="#929BFF"
    />
    <path
      d="M94.5937 54.9455C94.5937 55.5912 95.723 56.1146 97.1162 56.1146C98.5093 56.1146 99.6387 55.5912 99.6387 54.9455C99.6387 54.2999 98.5093 53.7765 97.1162 53.7765C95.723 53.7765 94.5937 54.2999 94.5937 54.9455Z"
      fill="#929BFF"
    />
    <path
      d="M94.5937 41.5015C94.5937 42.1471 95.723 42.6705 97.1162 42.6705C98.5093 42.6705 99.6387 42.1471 99.6387 41.5015C99.6387 40.8558 98.5093 40.3324 97.1162 40.3324C95.723 40.3324 94.5937 40.8558 94.5937 41.5015Z"
      fill="#929BFF"
    />
    <path
      d="M94.5937 28.0574C94.5937 28.703 95.723 29.2264 97.1162 29.2264C98.5093 29.2264 99.6387 28.703 99.6387 28.0574C99.6387 27.4117 98.5093 26.8883 97.1162 26.8883C95.723 26.8883 94.5937 27.4117 94.5937 28.0574Z"
      fill="#929BFF"
    />
    <path
      d="M94.5937 14.6133C94.5937 15.2589 95.723 15.7823 97.1162 15.7823C98.5093 15.7823 99.6387 15.2589 99.6387 14.6133C99.6387 13.9676 98.5093 13.4442 97.1162 13.4442C95.723 13.4442 94.5937 13.9676 94.5937 14.6133Z"
      fill="#929BFF"
    />
    <path
      d="M94.5937 1.16909C94.5937 1.81474 95.723 2.33814 97.1162 2.33814C98.5093 2.33814 99.6387 1.81474 99.6387 1.16909C99.6387 0.523439 98.5093 -4.9366e-08 97.1162 -1.10262e-07C95.723 -1.71158e-07 94.5937 0.523439 94.5937 1.16909Z"
      fill="#929BFF"
    />
    <path
      d="M126.125 202.831C126.125 203.477 127.254 204 128.647 204C130.041 204 131.17 203.477 131.17 202.831C131.17 202.185 130.041 201.662 128.647 201.662C127.254 201.662 126.125 202.185 126.125 202.831Z"
      fill="#929BFF"
    />
    <path
      d="M126.125 189.387C126.125 190.032 127.254 190.556 128.647 190.556C130.041 190.556 131.17 190.032 131.17 189.387C131.17 188.741 130.041 188.218 128.647 188.218C127.254 188.218 126.125 188.741 126.125 189.387Z"
      fill="#929BFF"
    />
    <path
      d="M126.125 175.943C126.125 176.588 127.254 177.112 128.647 177.112C130.041 177.112 131.17 176.588 131.17 175.943C131.17 175.297 130.041 174.774 128.647 174.774C127.254 174.774 126.125 175.297 126.125 175.943Z"
      fill="#929BFF"
    />
    <path
      d="M126.125 162.499C126.125 163.144 127.254 163.668 128.647 163.668C130.041 163.668 131.17 163.144 131.17 162.499C131.17 161.853 130.041 161.329 128.647 161.329C127.254 161.329 126.125 161.853 126.125 162.499Z"
      fill="#929BFF"
    />
    <path
      d="M126.125 149.054C126.125 149.7 127.254 150.223 128.647 150.223C130.041 150.223 131.17 149.7 131.17 149.054C131.17 148.409 130.041 147.885 128.647 147.885C127.254 147.885 126.125 148.409 126.125 149.054Z"
      fill="#929BFF"
    />
    <path
      d="M126.125 135.61C126.125 136.256 127.254 136.779 128.647 136.779C130.041 136.779 131.17 136.256 131.17 135.61C131.17 134.965 130.041 134.441 128.647 134.441C127.254 134.441 126.125 134.965 126.125 135.61Z"
      fill="#929BFF"
    />
    <path
      d="M126.125 122.166C126.125 122.812 127.254 123.335 128.647 123.335C130.041 123.335 131.17 122.812 131.17 122.166C131.17 121.52 130.041 120.997 128.647 120.997C127.254 120.997 126.125 121.52 126.125 122.166Z"
      fill="#929BFF"
    />
    <path
      d="M126.125 108.722C126.125 109.368 127.254 109.891 128.647 109.891C130.041 109.891 131.17 109.368 131.17 108.722C131.17 108.076 130.041 107.553 128.647 107.553C127.254 107.553 126.125 108.076 126.125 108.722Z"
      fill="#929BFF"
    />
    <path
      d="M126.125 95.2779C126.125 95.9236 127.254 96.447 128.647 96.447C130.041 96.447 131.17 95.9236 131.17 95.2779C131.17 94.6323 130.041 94.1089 128.647 94.1089C127.254 94.1089 126.125 94.6323 126.125 95.2779Z"
      fill="#929BFF"
    />
    <path
      d="M126.125 81.8338C126.125 82.4795 127.254 83.0029 128.647 83.0029C130.041 83.0029 131.17 82.4795 131.17 81.8338C131.17 81.1882 130.041 80.6648 128.647 80.6648C127.254 80.6648 126.125 81.1882 126.125 81.8338Z"
      fill="#929BFF"
    />
    <path
      d="M126.125 68.3896C126.125 69.0353 127.254 69.5587 128.647 69.5587C130.041 69.5587 131.17 69.0353 131.17 68.3896C131.17 67.744 130.041 67.2206 128.647 67.2206C127.254 67.2206 126.125 67.744 126.125 68.3896Z"
      fill="#929BFF"
    />
    <path
      d="M126.125 54.9455C126.125 55.5912 127.254 56.1146 128.647 56.1146C130.041 56.1146 131.17 55.5912 131.17 54.9455C131.17 54.2999 130.041 53.7765 128.647 53.7765C127.254 53.7765 126.125 54.2999 126.125 54.9455Z"
      fill="#929BFF"
    />
    <path
      d="M126.125 41.5015C126.125 42.1471 127.254 42.6705 128.647 42.6705C130.041 42.6705 131.17 42.1471 131.17 41.5015C131.17 40.8558 130.041 40.3324 128.647 40.3324C127.254 40.3324 126.125 40.8558 126.125 41.5015Z"
      fill="#929BFF"
    />
    <path
      d="M126.125 28.0574C126.125 28.703 127.254 29.2264 128.647 29.2264C130.041 29.2264 131.17 28.703 131.17 28.0574C131.17 27.4117 130.041 26.8883 128.647 26.8883C127.254 26.8883 126.125 27.4117 126.125 28.0574Z"
      fill="#929BFF"
    />
    <path
      d="M126.125 14.6133C126.125 15.2589 127.254 15.7823 128.647 15.7823C130.041 15.7823 131.17 15.2589 131.17 14.6133C131.17 13.9676 130.041 13.4442 128.647 13.4442C127.254 13.4442 126.125 13.9676 126.125 14.6133Z"
      fill="#929BFF"
    />
    <path
      d="M126.125 1.16909C126.125 1.81474 127.254 2.33814 128.647 2.33814C130.041 2.33814 131.17 1.81474 131.17 1.16909C131.17 0.523439 130.041 -4.9366e-08 128.647 -1.10262e-07C127.254 -1.71158e-07 126.125 0.523439 126.125 1.16909Z"
      fill="#929BFF"
    />
  </svg>