<svg width="1035" height="689" viewBox="0 0 1035 689" fill="none" xmlns="http://www.w3.org/2000/svg">
<path d="M567.654 28.3795C567.654 28.3795 604.904 62.6113 563.119 108.08C521.335 153.548 484.085 119.316 484.085 119.316" stroke="#1D68FF" stroke-width="25"/>
<path d="M112.569 523.585C112.569 523.585 149.819 557.817 108.034 603.285C66.2496 648.754 28.9998 614.522 28.9998 614.522" stroke="#1D68FF" stroke-width="25"/>
<path d="M476.723 127.326C476.723 127.326 513.973 161.558 472.188 207.027C430.404 252.495 393.154 218.263 393.154 218.263" stroke="#1D68FF" stroke-width="25"/>
<path d="M385.793 226.274C385.793 226.274 423.042 260.505 381.258 305.974C339.473 351.442 302.223 317.21 302.223 317.21" stroke="#1D68FF" stroke-width="25"/>
<path d="M294.863 325.221C294.863 325.221 332.113 359.453 290.328 404.921C248.544 450.39 211.294 416.158 211.294 416.158" stroke="#1D68FF" stroke-width="25"/>
<path d="M203.5 424.638C203.5 424.638 240.749 458.87 198.965 504.339C157.18 549.807 119.93 515.575 119.93 515.575" stroke="#1D68FF" stroke-width="25"/>
<path d="M562.654 23.7852C562.654 23.7852 599.903 58.0171 558.119 103.486C516.334 148.954 479.084 114.722 479.084 114.722" stroke="#4684FF" stroke-width="25"/>
<path d="M107.569 518.99C107.569 518.99 144.819 553.222 103.034 598.691C61.2496 644.159 23.9998 609.927 23.9998 609.927" stroke="#4684FF" stroke-width="25"/>
<path d="M471.723 122.732C471.723 122.732 508.973 156.963 467.188 202.432C425.404 247.9 388.154 213.668 388.154 213.668" stroke="#4684FF" stroke-width="25"/>
<path d="M380.793 221.678C380.793 221.678 418.043 255.91 376.258 301.379C334.474 346.847 297.224 312.615 297.224 312.615" stroke="#4684FF" stroke-width="25"/>
<path d="M289.863 320.626C289.863 320.626 327.113 354.858 285.329 400.326C243.544 445.795 206.294 411.563 206.294 411.563" stroke="#4684FF" stroke-width="25"/>
<path d="M198.499 420.044C198.499 420.044 235.749 454.275 193.964 499.744C152.18 545.212 114.93 510.98 114.93 510.98" stroke="#4684FF" stroke-width="25"/>
<path d="M557.654 19.19C557.654 19.19 594.904 53.4218 553.119 98.8903C511.335 144.359 474.085 110.127 474.085 110.127" stroke="#6F9FFF" stroke-width="25"/>
<path d="M102.569 514.396C102.569 514.396 139.819 548.627 98.0342 594.096C56.2496 639.564 18.9998 605.332 18.9998 605.332" stroke="#6F9FFF" stroke-width="25"/>
<path d="M466.723 118.137C466.723 118.137 503.973 152.369 462.188 197.837C420.404 243.306 383.154 209.074 383.154 209.074" stroke="#6F9FFF" stroke-width="25"/>
<path d="M375.793 217.084C375.793 217.084 413.043 251.315 371.258 296.784C329.474 342.252 292.224 308.02 292.224 308.02" stroke="#6F9FFF" stroke-width="25"/>
<path d="M284.863 316.03C284.863 316.03 322.112 350.262 280.328 395.731C238.543 441.199 201.293 406.967 201.293 406.967" stroke="#6F9FFF" stroke-width="25"/>
<path d="M193.5 415.449C193.5 415.449 230.75 449.681 188.965 495.149C147.181 540.618 109.931 506.386 109.931 506.386" stroke="#6F9FFF" stroke-width="25"/>
<path d="M547.654 10.0006C547.654 10.0006 584.904 44.2324 543.119 89.7009C501.335 135.169 464.085 100.937 464.085 100.937" stroke="#ADC8FF" stroke-width="25"/>
<path d="M92.5696 505.206C92.5696 505.206 129.819 539.437 88.0347 584.906C46.2501 630.374 9.00026 596.143 9.00026 596.143" stroke="#ADC8FF" stroke-width="25"/>
<path d="M456.723 108.947C456.723 108.947 493.973 143.179 452.188 188.648C410.404 234.116 373.154 199.884 373.154 199.884" stroke="#ADC8FF" stroke-width="25"/>
<path d="M365.793 207.894C365.793 207.894 403.043 242.126 361.258 287.594C319.474 333.063 282.224 298.831 282.224 298.831" stroke="#ADC8FF" stroke-width="25"/>
<path d="M274.863 306.84C274.863 306.84 312.113 341.072 270.328 386.541C228.544 432.009 191.294 397.777 191.294 397.777" stroke="#ADC8FF" stroke-width="25"/>
<path d="M183.5 406.259C183.5 406.259 220.749 440.491 178.965 485.96C137.18 531.428 99.9304 497.196 99.9304 497.196" stroke="#ADC8FF" stroke-width="25"/>
<path d="M552.654 14.5953C552.654 14.5953 589.904 48.8271 548.119 94.2956C506.335 139.764 469.085 105.532 469.085 105.532" stroke="#6F9FFF" stroke-opacity="0.7" stroke-width="25"/>
<path d="M97.5696 509.8C97.5696 509.8 134.819 544.032 93.0347 589.501C51.2501 634.969 14.0003 600.737 14.0003 600.737" stroke="#6F9FFF" stroke-opacity="0.7" stroke-width="25"/>
<path d="M461.723 113.542C461.723 113.542 498.973 147.774 457.188 193.242C415.404 238.711 378.154 204.479 378.154 204.479" stroke="#6F9FFF" stroke-opacity="0.7" stroke-width="25"/>
<path d="M370.793 212.489C370.793 212.489 408.043 246.721 366.258 292.189C324.474 337.658 287.224 303.426 287.224 303.426" stroke="#6F9FFF" stroke-opacity="0.7" stroke-width="25"/>
<path d="M279.863 311.436C279.863 311.436 317.112 345.667 275.328 391.136C233.543 436.604 196.293 402.373 196.293 402.373" stroke="#6F9FFF" stroke-opacity="0.7" stroke-width="25"/>
<path d="M188.5 410.854C188.5 410.854 225.749 445.085 183.965 490.554C142.18 536.022 104.93 501.79 104.93 501.79" stroke="#94B8FF" stroke-width="25"/>
<path d="M617.654 38.3795C617.654 38.3795 654.904 72.6113 613.119 118.08C571.335 163.548 534.085 129.316 534.085 129.316" stroke="#1D68FF" stroke-width="25"/>
<path d="M162.569 533.585C162.569 533.585 199.819 567.817 158.034 613.285C116.25 658.754 78.9998 624.522 78.9998 624.522" stroke="#1D68FF" stroke-width="25"/>
<path d="M526.723 137.326C526.723 137.326 563.973 171.558 522.188 217.027C480.404 262.495 443.154 228.263 443.154 228.263" stroke="#1D68FF" stroke-width="25"/>
<path d="M435.793 236.274C435.793 236.274 473.042 270.505 431.258 315.974C389.473 361.442 352.223 327.21 352.223 327.21" stroke="#1D68FF" stroke-width="25"/>
<path d="M344.863 335.221C344.863 335.221 382.113 369.453 340.328 414.921C298.544 460.39 261.294 426.158 261.294 426.158" stroke="#1D68FF" stroke-width="25"/>
<path d="M253.5 434.638C253.5 434.638 290.749 468.87 248.965 514.339C207.18 559.807 169.93 525.575 169.93 525.575" stroke="#1D68FF" stroke-width="25"/>
<path d="M612.654 33.7852C612.654 33.7852 649.903 68.0171 608.119 113.486C566.334 158.954 529.084 124.722 529.084 124.722" stroke="#4684FF" stroke-width="25"/>
<path d="M157.569 528.99C157.569 528.99 194.819 563.222 153.034 608.691C111.25 654.159 73.9998 619.927 73.9998 619.927" stroke="#4684FF" stroke-width="25"/>
<path d="M521.723 132.732C521.723 132.732 558.973 166.963 517.188 212.432C475.404 257.9 438.154 223.668 438.154 223.668" stroke="#4684FF" stroke-width="25"/>
<path d="M430.793 231.678C430.793 231.678 468.043 265.91 426.258 311.379C384.474 356.847 347.224 322.615 347.224 322.615" stroke="#4684FF" stroke-width="25"/>
<path d="M339.863 330.626C339.863 330.626 377.113 364.858 335.329 410.326C293.544 455.795 256.294 421.563 256.294 421.563" stroke="#4684FF" stroke-width="25"/>
<path d="M248.499 430.044C248.499 430.044 285.749 464.275 243.964 509.744C202.18 555.212 164.93 520.98 164.93 520.98" stroke="#4684FF" stroke-width="25"/>
<path d="M607.654 29.19C607.654 29.19 644.904 63.4218 603.119 108.89C561.335 154.359 524.085 120.127 524.085 120.127" stroke="#6F9FFF" stroke-width="25"/>
<path d="M152.569 524.396C152.569 524.396 189.819 558.627 148.034 604.096C106.25 649.564 68.9998 615.332 68.9998 615.332" stroke="#6F9FFF" stroke-width="25"/>
<path d="M516.723 128.137C516.723 128.137 553.973 162.369 512.188 207.837C470.404 253.306 433.154 219.074 433.154 219.074" stroke="#6F9FFF" stroke-width="25"/>
<path d="M425.793 227.084C425.793 227.084 463.043 261.315 421.258 306.784C379.474 352.252 342.224 318.02 342.224 318.02" stroke="#6F9FFF" stroke-width="25"/>
<path d="M334.863 326.03C334.863 326.03 372.112 360.262 330.328 405.731C288.543 451.199 251.293 416.967 251.293 416.967" stroke="#6F9FFF" stroke-width="25"/>
<path d="M243.5 425.449C243.5 425.449 280.749 459.681 238.965 505.149C197.18 550.618 159.93 516.386 159.93 516.386" stroke="#6F9FFF" stroke-width="25"/>
<path d="M597.654 20.0006C597.654 20.0006 634.904 54.2324 593.119 99.7009C551.335 145.169 514.085 110.937 514.085 110.937" stroke="#ADC8FF" stroke-width="25"/>
<path d="M142.57 515.206C142.57 515.206 179.819 549.437 138.035 594.906C96.2501 640.374 59.0003 606.143 59.0003 606.143" stroke="#ADC8FF" stroke-width="25"/>
<path d="M506.723 118.947C506.723 118.947 543.973 153.179 502.188 198.648C460.404 244.116 423.154 209.884 423.154 209.884" stroke="#ADC8FF" stroke-width="25"/>
<path d="M415.793 217.894C415.793 217.894 453.043 252.126 411.258 297.594C369.474 343.063 332.224 308.831 332.224 308.831" stroke="#ADC8FF" stroke-width="25"/>
<path d="M324.863 316.84C324.863 316.84 362.113 351.072 320.328 396.541C278.544 442.009 241.294 407.777 241.294 407.777" stroke="#ADC8FF" stroke-width="25"/>
<path d="M233.499 416.259C233.499 416.259 270.749 450.491 228.964 495.96C187.18 541.428 149.93 507.196 149.93 507.196" stroke="#ADC8FF" stroke-width="25"/>
<path d="M602.654 24.5953C602.654 24.5953 639.904 58.8271 598.119 104.296C556.335 149.764 519.085 115.532 519.085 115.532" stroke="#6F9FFF" stroke-opacity="0.7" stroke-width="25"/>
<path d="M147.569 519.8C147.569 519.8 184.819 554.032 143.034 599.501C101.25 644.969 63.9998 610.737 63.9998 610.737" stroke="#6F9FFF" stroke-opacity="0.7" stroke-width="25"/>
<path d="M511.723 123.542C511.723 123.542 548.973 157.774 507.188 203.242C465.404 248.711 428.154 214.479 428.154 214.479" stroke="#6F9FFF" stroke-opacity="0.7" stroke-width="25"/>
<path d="M420.793 222.489C420.793 222.489 458.043 256.721 416.258 302.189C374.474 347.658 337.224 313.426 337.224 313.426" stroke="#6F9FFF" stroke-opacity="0.7" stroke-width="25"/>
<path d="M329.863 321.436C329.863 321.436 367.112 355.667 325.328 401.136C283.543 446.604 246.293 412.373 246.293 412.373" stroke="#6F9FFF" stroke-opacity="0.7" stroke-width="25"/>
<path d="M238.5 420.854C238.5 420.854 275.749 455.085 233.965 500.554C192.18 546.022 154.93 511.79 154.93 511.79" stroke="#94B8FF" stroke-width="25"/>
<path d="M687.654 38.3795C687.654 38.3795 724.904 72.6113 683.119 118.08C641.335 163.548 604.085 129.316 604.085 129.316" stroke="#1D68FF" stroke-width="25"/>
<path d="M232.569 533.585C232.569 533.585 269.819 567.817 228.034 613.285C186.25 658.754 149 624.522 149 624.522" stroke="#1D68FF" stroke-width="25"/>
<path d="M596.723 137.326C596.723 137.326 633.973 171.558 592.188 217.027C550.404 262.495 513.154 228.263 513.154 228.263" stroke="#1D68FF" stroke-width="25"/>
<path d="M505.793 236.274C505.793 236.274 543.042 270.505 501.258 315.974C459.473 361.442 422.223 327.21 422.223 327.21" stroke="#1D68FF" stroke-width="25"/>
<path d="M414.863 335.221C414.863 335.221 452.113 369.453 410.328 414.921C368.544 460.39 331.294 426.158 331.294 426.158" stroke="#1D68FF" stroke-width="25"/>
<path d="M323.5 434.638C323.5 434.638 360.749 468.87 318.965 514.339C277.18 559.807 239.93 525.575 239.93 525.575" stroke="#1D68FF" stroke-width="25"/>
<path d="M682.654 33.7852C682.654 33.7852 719.903 68.0171 678.119 113.486C636.334 158.954 599.084 124.722 599.084 124.722" stroke="#4684FF" stroke-width="25"/>
<path d="M227.569 528.99C227.569 528.99 264.819 563.222 223.034 608.691C181.25 654.159 144 619.927 144 619.927" stroke="#4684FF" stroke-width="25"/>
<path d="M591.723 132.732C591.723 132.732 628.973 166.963 587.188 212.432C545.404 257.9 508.154 223.668 508.154 223.668" stroke="#4684FF" stroke-width="25"/>
<path d="M500.793 231.678C500.793 231.678 538.043 265.91 496.258 311.379C454.474 356.847 417.224 322.615 417.224 322.615" stroke="#4684FF" stroke-width="25"/>
<path d="M409.863 330.626C409.863 330.626 447.113 364.858 405.329 410.326C363.544 455.795 326.294 421.563 326.294 421.563" stroke="#4684FF" stroke-width="25"/>
<path d="M318.499 430.044C318.499 430.044 355.749 464.275 313.964 509.744C272.18 555.212 234.93 520.98 234.93 520.98" stroke="#4684FF" stroke-width="25"/>
<path d="M677.654 29.19C677.654 29.19 714.904 63.4218 673.119 108.89C631.335 154.359 594.085 120.127 594.085 120.127" stroke="#6F9FFF" stroke-width="25"/>
<path d="M222.569 524.396C222.569 524.396 259.819 558.627 218.034 604.096C176.25 649.564 139 615.332 139 615.332" stroke="#6F9FFF" stroke-width="25"/>
<path d="M586.723 128.137C586.723 128.137 623.973 162.369 582.188 207.837C540.404 253.306 503.154 219.074 503.154 219.074" stroke="#6F9FFF" stroke-width="25"/>
<path d="M495.793 227.084C495.793 227.084 533.043 261.315 491.258 306.784C449.474 352.252 412.224 318.02 412.224 318.02" stroke="#6F9FFF" stroke-width="25"/>
<path d="M404.863 326.03C404.863 326.03 442.112 360.262 400.328 405.731C358.543 451.199 321.293 416.967 321.293 416.967" stroke="#6F9FFF" stroke-width="25"/>
<path d="M313.5 425.449C313.5 425.449 350.749 459.681 308.965 505.149C267.18 550.618 229.93 516.386 229.93 516.386" stroke="#6F9FFF" stroke-width="25"/>
<path d="M667.654 20.0006C667.654 20.0006 704.904 54.2324 663.119 99.7009C621.335 145.169 584.085 110.937 584.085 110.937" stroke="#ADC8FF" stroke-width="25"/>
<path d="M212.57 515.206C212.57 515.206 249.819 549.437 208.035 594.906C166.25 640.374 129 606.143 129 606.143" stroke="#ADC8FF" stroke-width="25"/>
<path d="M576.723 118.947C576.723 118.947 613.973 153.179 572.188 198.648C530.404 244.116 493.154 209.884 493.154 209.884" stroke="#ADC8FF" stroke-width="25"/>
<path d="M485.793 217.894C485.793 217.894 523.043 252.126 481.258 297.594C439.474 343.063 402.224 308.831 402.224 308.831" stroke="#ADC8FF" stroke-width="25"/>
<path d="M394.863 316.84C394.863 316.84 432.113 351.072 390.328 396.541C348.544 442.009 311.294 407.777 311.294 407.777" stroke="#ADC8FF" stroke-width="25"/>
<path d="M303.499 416.259C303.499 416.259 340.749 450.491 298.964 495.96C257.18 541.428 219.93 507.196 219.93 507.196" stroke="#ADC8FF" stroke-width="25"/>
<path d="M672.654 24.5953C672.654 24.5953 709.904 58.8271 668.119 104.296C626.335 149.764 589.085 115.532 589.085 115.532" stroke="#6F9FFF" stroke-opacity="0.7" stroke-width="25"/>
<path d="M217.569 519.8C217.569 519.8 254.819 554.032 213.034 599.501C171.25 644.969 134 610.737 134 610.737" stroke="#6F9FFF" stroke-opacity="0.7" stroke-width="25"/>
<path d="M581.723 123.542C581.723 123.542 618.973 157.774 577.188 203.242C535.404 248.711 498.154 214.479 498.154 214.479" stroke="#6F9FFF" stroke-opacity="0.7" stroke-width="25"/>
<path d="M490.793 222.489C490.793 222.489 528.043 256.721 486.258 302.189C444.474 347.658 407.224 313.426 407.224 313.426" stroke="#6F9FFF" stroke-opacity="0.7" stroke-width="25"/>
<path d="M399.863 321.436C399.863 321.436 437.112 355.667 395.328 401.136C353.543 446.604 316.293 412.373 316.293 412.373" stroke="#6F9FFF" stroke-opacity="0.7" stroke-width="25"/>
<path d="M308.5 420.854C308.5 420.854 345.749 455.085 303.965 500.554C262.18 546.022 224.93 511.79 224.93 511.79" stroke="#94B8FF" stroke-width="25"/>
<path d="M747.654 48.3795C747.654 48.3795 784.904 82.6113 743.119 128.08C701.335 173.548 664.085 139.316 664.085 139.316" stroke="#1D68FF" stroke-width="25"/>
<path d="M292.569 543.585C292.569 543.585 329.819 577.817 288.034 623.285C246.25 668.754 209 634.522 209 634.522" stroke="#1D68FF" stroke-width="25"/>
<path d="M656.723 147.326C656.723 147.326 693.973 181.558 652.188 227.027C610.404 272.495 573.154 238.263 573.154 238.263" stroke="#1D68FF" stroke-width="25"/>
<path d="M565.793 246.274C565.793 246.274 603.042 280.505 561.258 325.974C519.473 371.442 482.223 337.21 482.223 337.21" stroke="#1D68FF" stroke-width="25"/>
<path d="M474.863 345.221C474.863 345.221 512.113 379.453 470.328 424.921C428.544 470.39 391.294 436.158 391.294 436.158" stroke="#1D68FF" stroke-width="25"/>
<path d="M383.5 444.638C383.5 444.638 420.749 478.87 378.965 524.339C337.18 569.807 299.93 535.575 299.93 535.575" stroke="#1D68FF" stroke-width="25"/>
<path d="M742.654 43.7852C742.654 43.7852 779.903 78.0171 738.119 123.486C696.334 168.954 659.084 134.722 659.084 134.722" stroke="#4684FF" stroke-width="25"/>
<path d="M287.569 538.99C287.569 538.99 324.819 573.222 283.034 618.691C241.25 664.159 204 629.927 204 629.927" stroke="#4684FF" stroke-width="25"/>
<path d="M651.723 142.732C651.723 142.732 688.973 176.963 647.188 222.432C605.404 267.9 568.154 233.668 568.154 233.668" stroke="#4684FF" stroke-width="25"/>
<path d="M560.793 241.678C560.793 241.678 598.043 275.91 556.258 321.379C514.474 366.847 477.224 332.615 477.224 332.615" stroke="#4684FF" stroke-width="25"/>
<path d="M469.863 340.626C469.863 340.626 507.113 374.858 465.329 420.326C423.544 465.795 386.294 431.563 386.294 431.563" stroke="#4684FF" stroke-width="25"/>
<path d="M378.499 440.044C378.499 440.044 415.749 474.275 373.964 519.744C332.18 565.212 294.93 530.98 294.93 530.98" stroke="#4684FF" stroke-width="25"/>
<path d="M737.654 39.19C737.654 39.19 774.904 73.4218 733.119 118.89C691.335 164.359 654.085 130.127 654.085 130.127" stroke="#6F9FFF" stroke-width="25"/>
<path d="M282.569 534.396C282.569 534.396 319.819 568.627 278.034 614.096C236.25 659.564 199 625.332 199 625.332" stroke="#6F9FFF" stroke-width="25"/>
<path d="M646.723 138.137C646.723 138.137 683.973 172.369 642.188 217.837C600.404 263.306 563.154 229.074 563.154 229.074" stroke="#6F9FFF" stroke-width="25"/>
<path d="M555.793 237.084C555.793 237.084 593.043 271.315 551.258 316.784C509.474 362.252 472.224 328.02 472.224 328.02" stroke="#6F9FFF" stroke-width="25"/>
<path d="M464.863 336.03C464.863 336.03 502.112 370.262 460.328 415.731C418.543 461.199 381.293 426.967 381.293 426.967" stroke="#6F9FFF" stroke-width="25"/>
<path d="M373.5 435.449C373.5 435.449 410.749 469.681 368.965 515.149C327.18 560.618 289.93 526.386 289.93 526.386" stroke="#6F9FFF" stroke-width="25"/>
<path d="M727.654 30.0006C727.654 30.0006 764.904 64.2324 723.119 109.701C681.335 155.169 644.085 120.937 644.085 120.937" stroke="#ADC8FF" stroke-width="25"/>
<path d="M272.57 525.206C272.57 525.206 309.819 559.437 268.035 604.906C226.25 650.374 189 616.143 189 616.143" stroke="#ADC8FF" stroke-width="25"/>
<path d="M636.723 128.947C636.723 128.947 673.973 163.179 632.188 208.648C590.404 254.116 553.154 219.884 553.154 219.884" stroke="#ADC8FF" stroke-width="25"/>
<path d="M545.793 227.894C545.793 227.894 583.043 262.126 541.258 307.594C499.474 353.063 462.224 318.831 462.224 318.831" stroke="#ADC8FF" stroke-width="25"/>
<path d="M454.863 326.84C454.863 326.84 492.113 361.072 450.328 406.541C408.544 452.009 371.294 417.777 371.294 417.777" stroke="#ADC8FF" stroke-width="25"/>
<path d="M363.499 426.259C363.499 426.259 400.749 460.491 358.964 505.96C317.18 551.428 279.93 517.196 279.93 517.196" stroke="#ADC8FF" stroke-width="25"/>
<path d="M732.654 34.5953C732.654 34.5953 769.904 68.8271 728.119 114.296C686.335 159.764 649.085 125.532 649.085 125.532" stroke="#6F9FFF" stroke-opacity="0.7" stroke-width="25"/>
<path d="M277.569 529.8C277.569 529.8 314.819 564.032 273.034 609.501C231.25 654.969 194 620.737 194 620.737" stroke="#6F9FFF" stroke-opacity="0.7" stroke-width="25"/>
<path d="M641.723 133.542C641.723 133.542 678.973 167.774 637.188 213.242C595.404 258.711 558.154 224.479 558.154 224.479" stroke="#6F9FFF" stroke-opacity="0.7" stroke-width="25"/>
<path d="M550.793 232.489C550.793 232.489 588.043 266.721 546.258 312.189C504.474 357.658 467.224 323.426 467.224 323.426" stroke="#6F9FFF" stroke-opacity="0.7" stroke-width="25"/>
<path d="M459.863 331.436C459.863 331.436 497.112 365.667 455.328 411.136C413.543 456.604 376.293 422.373 376.293 422.373" stroke="#6F9FFF" stroke-opacity="0.7" stroke-width="25"/>
<path d="M368.5 430.854C368.5 430.854 405.749 465.085 363.965 510.554C322.18 556.022 284.93 521.79 284.93 521.79" stroke="#94B8FF" stroke-width="25"/>
<path d="M817.654 58.3795C817.654 58.3795 854.904 92.6113 813.119 138.08C771.335 183.548 734.085 149.316 734.085 149.316" stroke="#1D68FF" stroke-width="25"/>
<path d="M362.569 553.585C362.569 553.585 399.819 587.817 358.034 633.285C316.25 678.754 279 644.522 279 644.522" stroke="#1D68FF" stroke-width="25"/>
<path d="M726.723 157.326C726.723 157.326 763.973 191.558 722.188 237.027C680.404 282.495 643.154 248.263 643.154 248.263" stroke="#1D68FF" stroke-width="25"/>
<path d="M635.793 256.274C635.793 256.274 673.042 290.505 631.258 335.974C589.473 381.442 552.223 347.21 552.223 347.21" stroke="#1D68FF" stroke-width="25"/>
<path d="M544.863 355.221C544.863 355.221 582.113 389.453 540.328 434.921C498.544 480.39 461.294 446.158 461.294 446.158" stroke="#1D68FF" stroke-width="25"/>
<path d="M453.5 454.638C453.5 454.638 490.749 488.87 448.965 534.339C407.18 579.807 369.93 545.575 369.93 545.575" stroke="#1D68FF" stroke-width="25"/>
<path d="M812.654 53.7852C812.654 53.7852 849.903 88.0171 808.119 133.486C766.334 178.954 729.084 144.722 729.084 144.722" stroke="#4684FF" stroke-width="25"/>
<path d="M357.569 548.99C357.569 548.99 394.819 583.222 353.034 628.691C311.25 674.159 274 639.927 274 639.927" stroke="#4684FF" stroke-width="25"/>
<path d="M721.723 152.732C721.723 152.732 758.973 186.963 717.188 232.432C675.404 277.9 638.154 243.668 638.154 243.668" stroke="#4684FF" stroke-width="25"/>
<path d="M630.793 251.678C630.793 251.678 668.043 285.91 626.258 331.379C584.474 376.847 547.224 342.615 547.224 342.615" stroke="#4684FF" stroke-width="25"/>
<path d="M539.863 350.626C539.863 350.626 577.113 384.858 535.329 430.326C493.544 475.795 456.294 441.563 456.294 441.563" stroke="#4684FF" stroke-width="25"/>
<path d="M448.499 450.044C448.499 450.044 485.749 484.275 443.964 529.744C402.18 575.212 364.93 540.98 364.93 540.98" stroke="#4684FF" stroke-width="25"/>
<path d="M807.654 49.19C807.654 49.19 844.904 83.4218 803.119 128.89C761.335 174.359 724.085 140.127 724.085 140.127" stroke="#6F9FFF" stroke-width="25"/>
<path d="M352.569 544.396C352.569 544.396 389.819 578.627 348.034 624.096C306.25 669.564 269 635.332 269 635.332" stroke="#6F9FFF" stroke-width="25"/>
<path d="M716.723 148.137C716.723 148.137 753.973 182.369 712.188 227.837C670.404 273.306 633.154 239.074 633.154 239.074" stroke="#6F9FFF" stroke-width="25"/>
<path d="M625.793 247.084C625.793 247.084 663.043 281.315 621.258 326.784C579.474 372.252 542.224 338.02 542.224 338.02" stroke="#6F9FFF" stroke-width="25"/>
<path d="M534.863 346.03C534.863 346.03 572.112 380.262 530.328 425.731C488.543 471.199 451.293 436.967 451.293 436.967" stroke="#6F9FFF" stroke-width="25"/>
<path d="M443.5 445.449C443.5 445.449 480.749 479.681 438.965 525.149C397.18 570.618 359.93 536.386 359.93 536.386" stroke="#6F9FFF" stroke-width="25"/>
<path d="M797.654 40.0006C797.654 40.0006 834.904 74.2324 793.119 119.701C751.335 165.169 714.085 130.937 714.085 130.937" stroke="#ADC8FF" stroke-width="25"/>
<path d="M342.57 535.206C342.57 535.206 379.819 569.437 338.035 614.906C296.25 660.374 259 626.143 259 626.143" stroke="#ADC8FF" stroke-width="25"/>
<path d="M706.723 138.947C706.723 138.947 743.973 173.179 702.188 218.648C660.404 264.116 623.154 229.884 623.154 229.884" stroke="#ADC8FF" stroke-width="25"/>
<path d="M615.793 237.894C615.793 237.894 653.043 272.126 611.258 317.594C569.474 363.063 532.224 328.831 532.224 328.831" stroke="#ADC8FF" stroke-width="25"/>
<path d="M524.863 336.84C524.863 336.84 562.113 371.072 520.328 416.541C478.544 462.009 441.294 427.777 441.294 427.777" stroke="#ADC8FF" stroke-width="25"/>
<path d="M433.499 436.259C433.499 436.259 470.749 470.491 428.964 515.96C387.18 561.428 349.93 527.196 349.93 527.196" stroke="#ADC8FF" stroke-width="25"/>
<path d="M802.654 44.5953C802.654 44.5953 839.904 78.8271 798.119 124.296C756.335 169.764 719.085 135.532 719.085 135.532" stroke="#6F9FFF" stroke-opacity="0.7" stroke-width="25"/>
<path d="M347.569 539.8C347.569 539.8 384.819 574.032 343.034 619.501C301.25 664.969 264 630.737 264 630.737" stroke="#6F9FFF" stroke-opacity="0.7" stroke-width="25"/>
<path d="M711.723 143.542C711.723 143.542 748.973 177.774 707.188 223.242C665.404 268.711 628.154 234.479 628.154 234.479" stroke="#6F9FFF" stroke-opacity="0.7" stroke-width="25"/>
<path d="M620.793 242.489C620.793 242.489 658.043 276.721 616.258 322.189C574.474 367.658 537.224 333.426 537.224 333.426" stroke="#6F9FFF" stroke-opacity="0.7" stroke-width="25"/>
<path d="M529.863 341.436C529.863 341.436 567.112 375.667 525.328 421.136C483.543 466.604 446.293 432.373 446.293 432.373" stroke="#6F9FFF" stroke-opacity="0.7" stroke-width="25"/>
<path d="M438.5 440.854C438.5 440.854 475.749 475.085 433.965 520.554C392.18 566.022 354.93 531.79 354.93 531.79" stroke="#94B8FF" stroke-width="25"/>
<path d="M887.654 68.3795C887.654 68.3795 924.904 102.611 883.119 148.08C841.335 193.548 804.085 159.316 804.085 159.316" stroke="#1D68FF" stroke-width="25"/>
<path d="M432.569 563.585C432.569 563.585 469.819 597.817 428.034 643.285C386.25 688.754 349 654.522 349 654.522" stroke="#1D68FF" stroke-width="25"/>
<path d="M796.723 167.326C796.723 167.326 833.973 201.558 792.188 247.027C750.404 292.495 713.154 258.263 713.154 258.263" stroke="#1D68FF" stroke-width="25"/>
<path d="M705.793 266.274C705.793 266.274 743.042 300.505 701.258 345.974C659.473 391.442 622.223 357.21 622.223 357.21" stroke="#1D68FF" stroke-width="25"/>
<path d="M614.863 365.221C614.863 365.221 652.113 399.453 610.328 444.921C568.544 490.39 531.294 456.158 531.294 456.158" stroke="#1D68FF" stroke-width="25"/>
<path d="M523.5 464.638C523.5 464.638 560.749 498.87 518.965 544.339C477.18 589.807 439.93 555.575 439.93 555.575" stroke="#1D68FF" stroke-width="25"/>
<path d="M882.654 63.7852C882.654 63.7852 919.903 98.0171 878.119 143.486C836.334 188.954 799.084 154.722 799.084 154.722" stroke="#4684FF" stroke-width="25"/>
<path d="M427.569 558.99C427.569 558.99 464.819 593.222 423.034 638.691C381.25 684.159 344 649.927 344 649.927" stroke="#4684FF" stroke-width="25"/>
<path d="M791.723 162.732C791.723 162.732 828.973 196.963 787.188 242.432C745.404 287.9 708.154 253.668 708.154 253.668" stroke="#4684FF" stroke-width="25"/>
<path d="M700.793 261.678C700.793 261.678 738.043 295.91 696.258 341.379C654.474 386.847 617.224 352.615 617.224 352.615" stroke="#4684FF" stroke-width="25"/>
<path d="M609.863 360.626C609.863 360.626 647.113 394.858 605.329 440.326C563.544 485.795 526.294 451.563 526.294 451.563" stroke="#4684FF" stroke-width="25"/>
<path d="M518.499 460.044C518.499 460.044 555.749 494.275 513.964 539.744C472.18 585.212 434.93 550.98 434.93 550.98" stroke="#4684FF" stroke-width="25"/>
<path d="M877.654 59.19C877.654 59.19 914.904 93.4218 873.119 138.89C831.335 184.359 794.085 150.127 794.085 150.127" stroke="#6F9FFF" stroke-width="25"/>
<path d="M422.569 554.396C422.569 554.396 459.819 588.627 418.034 634.096C376.25 679.564 339 645.332 339 645.332" stroke="#6F9FFF" stroke-width="25"/>
<path d="M786.723 158.137C786.723 158.137 823.973 192.369 782.188 237.837C740.404 283.306 703.154 249.074 703.154 249.074" stroke="#6F9FFF" stroke-width="25"/>
<path d="M695.793 257.084C695.793 257.084 733.043 291.315 691.258 336.784C649.474 382.252 612.224 348.02 612.224 348.02" stroke="#6F9FFF" stroke-width="25"/>
<path d="M604.863 356.03C604.863 356.03 642.112 390.262 600.328 435.731C558.543 481.199 521.293 446.967 521.293 446.967" stroke="#6F9FFF" stroke-width="25"/>
<path d="M513.5 455.449C513.5 455.449 550.749 489.681 508.965 535.149C467.18 580.618 429.93 546.386 429.93 546.386" stroke="#6F9FFF" stroke-width="25"/>
<path d="M867.654 50.0006C867.654 50.0006 904.904 84.2324 863.119 129.701C821.335 175.169 784.085 140.937 784.085 140.937" stroke="#ADC8FF" stroke-width="25"/>
<path d="M412.57 545.206C412.57 545.206 449.819 579.437 408.035 624.906C366.25 670.374 329 636.143 329 636.143" stroke="#ADC8FF" stroke-width="25"/>
<path d="M776.723 148.947C776.723 148.947 813.973 183.179 772.188 228.648C730.404 274.116 693.154 239.884 693.154 239.884" stroke="#ADC8FF" stroke-width="25"/>
<path d="M685.793 247.894C685.793 247.894 723.043 282.126 681.258 327.594C639.474 373.063 602.224 338.831 602.224 338.831" stroke="#ADC8FF" stroke-width="25"/>
<path d="M594.863 346.84C594.863 346.84 632.113 381.072 590.328 426.541C548.544 472.009 511.294 437.777 511.294 437.777" stroke="#ADC8FF" stroke-width="25"/>
<path d="M503.499 446.259C503.499 446.259 540.749 480.491 498.964 525.96C457.18 571.428 419.93 537.196 419.93 537.196" stroke="#ADC8FF" stroke-width="25"/>
<path d="M872.654 54.5953C872.654 54.5953 909.904 88.8271 868.119 134.296C826.335 179.764 789.085 145.532 789.085 145.532" stroke="#6F9FFF" stroke-opacity="0.7" stroke-width="25"/>
<path d="M417.569 549.8C417.569 549.8 454.819 584.032 413.034 629.501C371.25 674.969 334 640.737 334 640.737" stroke="#6F9FFF" stroke-opacity="0.7" stroke-width="25"/>
<path d="M781.723 153.542C781.723 153.542 818.973 187.774 777.188 233.242C735.404 278.711 698.154 244.479 698.154 244.479" stroke="#6F9FFF" stroke-opacity="0.7" stroke-width="25"/>
<path d="M690.793 252.489C690.793 252.489 728.043 286.721 686.258 332.189C644.474 377.658 607.224 343.426 607.224 343.426" stroke="#6F9FFF" stroke-opacity="0.7" stroke-width="25"/>
<path d="M599.863 351.436C599.863 351.436 637.112 385.667 595.328 431.136C553.543 476.604 516.293 442.373 516.293 442.373" stroke="#6F9FFF" stroke-opacity="0.7" stroke-width="25"/>
<path d="M508.5 450.854C508.5 450.854 545.749 485.085 503.965 530.554C462.18 576.022 424.93 541.79 424.93 541.79" stroke="#94B8FF" stroke-width="25"/>
<path d="M997.654 37.3795C997.654 37.3795 1034.9 71.6113 993.119 117.08C951.335 162.548 914.085 128.316 914.085 128.316" stroke="#1D68FF" stroke-width="25"/>
<path d="M542.569 532.585C542.569 532.585 579.819 566.817 538.034 612.285C496.25 657.754 459 623.522 459 623.522" stroke="#1D68FF" stroke-width="25"/>
<path d="M906.723 136.326C906.723 136.326 943.973 170.558 902.188 216.027C860.404 261.495 823.154 227.263 823.154 227.263" stroke="#1D68FF" stroke-width="25"/>
<path d="M815.793 235.274C815.793 235.274 853.042 269.505 811.258 314.974C769.473 360.442 732.223 326.21 732.223 326.21" stroke="#1D68FF" stroke-width="25"/>
<path d="M724.863 334.221C724.863 334.221 762.113 368.453 720.328 413.921C678.544 459.39 641.294 425.158 641.294 425.158" stroke="#1D68FF" stroke-width="25"/>
<path d="M633.5 433.638C633.5 433.638 670.749 467.87 628.965 513.339C587.18 558.807 549.93 524.575 549.93 524.575" stroke="#1D68FF" stroke-width="25"/>
<path d="M992.654 32.7852C992.654 32.7852 1029.9 67.0171 988.119 112.486C946.334 157.954 909.084 123.722 909.084 123.722" stroke="#4684FF" stroke-width="25"/>
<path d="M537.569 527.99C537.569 527.99 574.819 562.222 533.034 607.691C491.25 653.159 454 618.927 454 618.927" stroke="#4684FF" stroke-width="25"/>
<path d="M901.723 131.732C901.723 131.732 938.973 165.963 897.188 211.432C855.404 256.9 818.154 222.668 818.154 222.668" stroke="#4684FF" stroke-width="25"/>
<path d="M810.793 230.678C810.793 230.678 848.043 264.91 806.258 310.379C764.474 355.847 727.224 321.615 727.224 321.615" stroke="#4684FF" stroke-width="25"/>
<path d="M719.863 329.626C719.863 329.626 757.113 363.858 715.329 409.326C673.544 454.795 636.294 420.563 636.294 420.563" stroke="#4684FF" stroke-width="25"/>
<path d="M628.499 429.044C628.499 429.044 665.749 463.275 623.964 508.744C582.18 554.212 544.93 519.98 544.93 519.98" stroke="#4684FF" stroke-width="25"/>
<path d="M987.654 28.19C987.654 28.19 1024.9 62.4218 983.119 107.89C941.335 153.359 904.085 119.127 904.085 119.127" stroke="#6F9FFF" stroke-width="25"/>
<path d="M532.569 523.396C532.569 523.396 569.819 557.627 528.034 603.096C486.25 648.564 449 614.332 449 614.332" stroke="#6F9FFF" stroke-width="25"/>
<path d="M896.723 127.137C896.723 127.137 933.973 161.369 892.188 206.837C850.404 252.306 813.154 218.074 813.154 218.074" stroke="#6F9FFF" stroke-width="25"/>
<path d="M805.793 226.084C805.793 226.084 843.043 260.315 801.258 305.784C759.474 351.252 722.224 317.02 722.224 317.02" stroke="#6F9FFF" stroke-width="25"/>
<path d="M714.863 325.03C714.863 325.03 752.112 359.262 710.328 404.731C668.543 450.199 631.293 415.967 631.293 415.967" stroke="#6F9FFF" stroke-width="25"/>
<path d="M623.5 424.449C623.5 424.449 660.749 458.681 618.965 504.149C577.18 549.618 539.93 515.386 539.93 515.386" stroke="#6F9FFF" stroke-width="25"/>
<path d="M977.654 19.0006C977.654 19.0006 1014.9 53.2324 973.119 98.7009C931.335 144.169 894.085 109.937 894.085 109.937" stroke="#ADC8FF" stroke-width="25"/>
<path d="M522.57 514.206C522.57 514.206 559.819 548.437 518.035 593.906C476.25 639.374 439 605.143 439 605.143" stroke="#ADC8FF" stroke-width="25"/>
<path d="M886.723 117.947C886.723 117.947 923.973 152.179 882.188 197.648C840.404 243.116 803.154 208.884 803.154 208.884" stroke="#ADC8FF" stroke-width="25"/>
<path d="M795.793 216.894C795.793 216.894 833.043 251.126 791.258 296.594C749.474 342.063 712.224 307.831 712.224 307.831" stroke="#ADC8FF" stroke-width="25"/>
<path d="M704.863 315.84C704.863 315.84 742.113 350.072 700.328 395.541C658.544 441.009 621.294 406.777 621.294 406.777" stroke="#ADC8FF" stroke-width="25"/>
<path d="M613.499 415.259C613.499 415.259 650.749 449.491 608.964 494.96C567.18 540.428 529.93 506.196 529.93 506.196" stroke="#ADC8FF" stroke-width="25"/>
<path d="M982.654 23.5953C982.654 23.5953 1019.9 57.8271 978.119 103.296C936.335 148.764 899.085 114.532 899.085 114.532" stroke="#6F9FFF" stroke-opacity="0.7" stroke-width="25"/>
<path d="M527.569 518.8C527.569 518.8 564.819 553.032 523.034 598.501C481.25 643.969 444 609.737 444 609.737" stroke="#6F9FFF" stroke-opacity="0.7" stroke-width="25"/>
<path d="M891.723 122.542C891.723 122.542 928.973 156.774 887.188 202.242C845.404 247.711 808.154 213.479 808.154 213.479" stroke="#6F9FFF" stroke-opacity="0.7" stroke-width="25"/>
<path d="M800.793 221.489C800.793 221.489 838.043 255.721 796.258 301.189C754.474 346.658 717.224 312.426 717.224 312.426" stroke="#6F9FFF" stroke-opacity="0.7" stroke-width="25"/>
<path d="M709.863 320.436C709.863 320.436 747.112 354.667 705.328 400.136C663.543 445.604 626.293 411.373 626.293 411.373" stroke="#6F9FFF" stroke-opacity="0.7" stroke-width="25"/>
<path d="M618.5 419.854C618.5 419.854 655.749 454.085 613.965 499.554C572.18 545.022 534.93 510.79 534.93 510.79" stroke="#94B8FF" stroke-width="25"/>
</svg>
