<?xml version="1.0" encoding="UTF-8"?>
<svg id="Layer_2" data-name="Layer 2" xmlns="http://www.w3.org/2000/svg" viewBox="0 0 103.68 103.68">
  <defs>
    <style>
      .cls-1 {
        fill: #112033;
      }

      .cls-1, .cls-2 {
        stroke-width: 0px;
      }

      .cls-2 {
        fill: #83aadf;
      }
    </style>
  </defs>
  <g id="Layer_1-2" data-name="Layer 1">
    <g>
      <circle class="cls-2" cx="51.84" cy="51.84" r="51.84"/>
      <g>
        <path class="cls-1" d="M21.62,64.28v-24.87h8.61c1.11,0,2.16.18,3.14.55.99.37,1.85.89,2.59,1.56.74.67,1.33,1.48,1.75,2.41.43.94.64,1.98.64,3.11s-.21,2.14-.64,3.08c-.43.94-1.01,1.74-1.75,2.41-.74.67-1.6,1.19-2.59,1.56-.98.37-2.03.55-3.14.55h-4.69v9.62h-3.93ZM30.34,50.9c.65,0,1.23-.11,1.74-.33.51-.22.94-.51,1.28-.88s.61-.79.8-1.25.28-.93.28-1.39-.09-.96-.28-1.42c-.19-.46-.45-.87-.8-1.23s-.78-.65-1.28-.88c-.51-.23-1.09-.35-1.74-.35h-4.79v7.74h4.79Z"/>
        <path class="cls-1" d="M41.7,39.41h3.93v11.74h.21l10.04-11.74h4.9v.21l-9.1,10.49,9.86,13.96v.21h-4.79l-7.78-11.11-3.33,3.86v7.26h-3.93v-24.87Z"/>
        <path class="cls-1" d="M64.1,39.41h8.79c1.13,0,2.19.18,3.18.55.98.37,1.83.9,2.55,1.58.72.68,1.28,1.49,1.68,2.41.41.92.61,1.94.61,3.06,0,.86-.14,1.67-.43,2.43s-.69,1.45-1.2,2.07-1.11,1.14-1.79,1.58c-.68.44-1.42.77-2.21.97l-.04.18,6.81,9.83v.21h-4.58l-6.56-9.69h-2.88v9.69h-3.93v-24.87ZM72.79,50.9c.58,0,1.12-.1,1.62-.29.5-.2.93-.47,1.3-.82s.67-.76.89-1.23c.22-.47.33-1,.33-1.58,0-.46-.09-.93-.26-1.39s-.43-.88-.76-1.25c-.34-.37-.75-.67-1.25-.9s-1.07-.35-1.72-.35h-4.9v7.82h4.76Z"/>
      </g>
    </g>
  </g>
</svg>