<svg width="86" height="40" viewBox="0 0 86 40" fill="none" xmlns="http://www.w3.org/2000/svg">
<g clip-path="url(#clip0_2020_49)">
<path d="M9.6032 3.10204V14.449C9.6032 14.449 13.6118 14.449 15.7388 14.2857C17.4567 13.9592 17.7021 13.7959 18.0294 12.1633L18.6838 9.71429H20.4836L20.1564 15.0204L20.32 20.5714H18.5202L18.0294 18.449C17.5385 16.898 16.9659 16.5714 15.7388 16.4898C14.1844 16.3265 9.6032 16.3265 9.6032 16.3265V25.8776C9.6032 27.6735 10.5031 28.4898 12.7119 28.4898H19.1747C21.138 28.4898 23.1832 28.3265 24.4103 25.3878L26.0465 21.7143H27.6008C27.4372 22.449 26.7009 29.2245 26.5373 30.7755C26.5373 30.7755 20.729 30.6122 18.2748 30.6122H7.14898H0.522583V28.9796L2.64958 28.4898C4.20392 28.1633 4.69476 27.7551 4.69476 26.5306C4.69476 26.5306 4.85837 22.3673 4.85837 15.5102C4.85837 8.65306 4.69476 4.4898 4.69476 4.4898C4.69476 3.10204 4.20392 2.77551 2.64958 2.53061L0.522583 1.95918V0.326531L6.98537 0.489796H19.2565C21.7107 0.408163 25.8829 0 25.8829 0C25.8829 0 25.7193 2.61224 25.5556 8.73469H23.8377L23.1832 6.61225C22.6106 3.83674 21.7107 2.44898 19.9927 2.44898H10.3395C9.6032 2.44898 9.6032 2.61224 9.6032 3.10204ZM34.4727 4.2449H36.3542V10.6939L42.6534 10.3673L42.3262 13.3061L36.1906 12.8163V24.1633C36.1906 27.3469 37.2541 28.6531 39.1357 28.6531C40.7718 28.6531 42.0807 27.7551 42.4898 26.9388L43.3897 28C42.4898 30.1224 39.8719 31.1837 37.4177 31.1837C34.3908 31.1837 31.8548 29.3878 31.8548 25.7959V12.9796H28.1735V11.4286C31.2822 11.1837 33.5728 9.30612 34.4727 4.2449ZM47.7254 24.0816L48.9526 27.0204C49.4434 28.2449 50.5069 29.4694 52.9611 29.4694C55.579 29.4694 56.6425 28.0816 56.6425 26.3673C56.6425 21.1429 46.3347 22.6939 46.3347 15.5918C46.3347 11.5918 49.5252 9.71429 53.6974 9.71429C55.579 9.71429 58.2786 10.0408 59.6693 10.6122C59.3421 12.1633 59.1785 14.1225 59.1785 15.6735L57.6241 15.8367L56.5606 12.7347C56.2334 12 55.0063 11.3469 53.452 11.3469C51.5704 11.3469 49.7706 12.0816 49.7706 14.1224C49.7706 18.8571 60.4056 17.7959 60.4056 24.898C60.4056 28.898 56.8879 31.0204 52.5521 31.0204C49.3616 31.0204 46.0893 29.7959 46.0893 29.7959C46.4165 28 46.2529 25.9592 46.0893 24C46.1711 24.0816 47.7254 24.0816 47.7254 24.0816ZM59.6693 38.7755C60.1602 37.0612 60.4056 34.9388 60.7328 32.9796L62.4508 32.8163L63.1052 36C63.2689 36.7347 63.6779 37.3878 64.905 37.3878C66.8684 37.3878 69.4862 36.1633 72.0222 31.8367C70.9587 29.2245 67.6865 20.8163 64.7414 14.3673C64.0051 12.6531 63.8415 12.4898 62.778 12.2449L61.9599 11.9184V10.3673L66.623 10.5306L72.2677 10.2041V11.7551L70.8769 12.0816C69.8134 12.2449 69.3226 12.8163 69.3226 13.4694C69.3226 13.6327 69.3226 13.7959 69.4862 14.1224C69.8134 15.0204 72.2677 21.9592 74.0674 26.5306C75.6218 23.3469 78.485 16.0816 78.9759 14.8571C79.1395 14.2041 79.3031 14.1225 79.3031 13.6327C79.3031 12.8163 78.8123 12.4082 77.7488 12.0816L76.6853 11.7551V10.2041L81.0211 10.3673L85.0296 10.2041V11.7551L84.2934 12.3265C82.739 12.9796 82.5754 13.0612 82.0027 14.3673L75.2127 30.2041C71.2042 39.2653 67.032 40 64.1687 40C62.2872 40 60.8964 39.5102 59.6693 38.7755Z" fill="white" fill-opacity="0.5"/>
</g>
<defs>
<clipPath id="clip0_2020_49">
<rect width="84.507" height="40" fill="white" transform="translate(0.522583)"/>
</clipPath>
</defs>
</svg>
