<svg width="165" height="40" viewBox="0 0 165 40" fill="none" xmlns="http://www.w3.org/2000/svg">
<g clip-path="url(#clip0_2020_6)">
<path fill-rule="evenodd" clip-rule="evenodd" d="M91.332 25.4308C91.332 25.7441 91.28 26.1096 91.2281 26.3707C90.7605 27.7284 89.5136 28.6161 88.0588 28.6161C86.76 28.6161 85.7728 27.8851 85.7728 26.3185C85.7728 23.9164 88.3706 23.2898 91.3839 23.2898V25.4308H91.332ZM96.0079 21.2532C96.0079 17.3368 94.3453 13.8381 88.6823 13.8381C85.7728 13.8381 83.4349 14.6736 82.188 15.4046L83.1232 18.59C84.5779 17.7545 86.1885 17.2845 87.851 17.2323C90.7605 17.2323 91.2281 18.8511 91.2281 19.8955V20.1566C84.9416 20.1566 80.993 22.3498 80.993 26.7885C80.993 29.5039 83.0193 32.0626 86.5522 32.0626C88.6823 32.0626 90.5007 31.2271 91.5917 29.8172H91.6956C91.6956 29.8172 92.423 32.8459 96.3715 31.6971C96.1637 30.4438 96.0598 29.0861 96.0598 27.5195V21.2532H96.0079ZM-0.00378418 8.45947L4.77602 28.0939C5.55533 31.2793 6.90614 32.4804 10.8547 31.6971L13.4004 21.2532C14.0239 18.6422 14.4915 16.8146 14.9071 14.1514H14.9591C15.2708 16.8146 15.6864 18.6422 16.206 21.2532L17.7646 28.5117C18.3361 31.0182 19.7908 32.5848 23.6874 31.6971L29.7661 8.51169H24.8304L22.7522 18.5378C22.1807 21.4621 21.6612 23.7597 21.2975 26.4229C20.9338 23.7597 20.4662 21.5665 19.8947 18.7467L17.7646 8.51169H12.6211L10.2832 18.4856C9.65972 21.5143 9.03627 23.9686 8.62064 26.5274H8.56868C8.15305 24.1253 7.63351 21.0443 7.06201 18.12L5.19165 8.45947H-0.00378418ZM38.8061 25.4308C38.8061 25.7441 38.8061 26.1096 38.7022 26.3707C38.2346 27.7284 36.9877 28.6161 35.533 28.6161C34.2341 28.6161 33.247 27.8851 33.247 26.3185C33.247 23.9164 35.8447 23.2898 38.8581 23.2898V25.4308H38.8061ZM43.534 21.2532C43.534 17.3368 41.8714 13.8381 36.2084 13.8381C33.299 13.8381 30.961 14.6736 29.7141 15.4046L30.6493 18.59C32.104 17.7545 33.7146 17.2845 35.3771 17.2323C38.2866 17.2323 38.7542 18.8511 38.7542 19.8955V20.1566C32.4677 20.1566 28.5192 22.3498 28.5192 26.7885C28.5192 29.5039 30.5454 32.0626 34.0783 32.0626C36.2084 32.0626 38.0268 31.2271 39.1178 29.8172H39.2217C39.2217 29.8172 39.9491 32.8459 43.8976 31.6971C43.6898 30.4438 43.5859 29.0861 43.5859 27.5195V21.2532H43.534ZM50.7556 26.7362V8.45947H46.0797V31.6448H50.7556V26.7362ZM110.399 8.51169V25.5874C110.399 27.9373 110.815 29.6083 111.802 30.6005C112.633 31.4882 113.984 32.0626 115.595 32.0626C116.997 32.0626 118.348 31.8015 118.972 31.5404L118.92 27.8328C118.452 27.9895 117.881 28.0417 117.153 28.0417C115.543 28.0417 115.023 27.0496 115.023 24.9086V18.4334H119.128V13.9947H115.023V8.45947L110.399 8.51169ZM98.2938 14.2558V31.6971H103.126V22.7676C103.126 22.2976 103.178 21.8798 103.23 21.4621C103.593 19.5822 104.996 18.3811 107.074 18.3811C107.646 18.3811 108.009 18.4334 108.477 18.4856V13.8903C108.113 13.8381 107.75 13.7858 107.438 13.7858C105.619 13.7858 103.593 14.9347 102.71 17.4934H102.606V14.2036L98.2938 14.2558ZM53.5092 14.2558V31.6971H58.1851V21.4621C58.1851 20.9921 58.237 20.4699 58.3929 20.0522C58.7566 19.0078 59.7437 17.8067 61.2504 17.8067C63.1727 17.8067 64.0559 19.4255 64.0559 21.7232V31.6448H68.7838V21.3054C68.7838 20.8355 68.8357 20.261 68.9916 19.8955C69.3553 18.6422 70.5502 17.7545 71.8491 17.7545C73.7714 17.7545 74.7066 19.3211 74.7066 22.0887V31.6448H79.4344V21.4099C79.4344 16.0313 76.6808 13.8381 73.6155 13.8381C72.2128 13.8381 71.1737 14.2036 70.1865 14.778C69.3553 15.3002 68.6279 16.0313 68.0045 16.9712H67.9525C67.1732 15.0391 65.2509 13.7858 63.1727 13.8381C61.0945 13.7336 59.1203 14.778 58.1331 16.6057H58.0812V14.2558H53.5092Z" fill="white" fill-opacity="0.5"/>
<path fill-rule="evenodd" clip-rule="evenodd" d="M144.43 13.4726C145.365 13.4726 146.144 12.9504 146.248 12.376L147.132 1.8799C147.132 0.835509 145.937 0 144.43 0C142.923 0 141.728 0.835509 141.728 1.8799L142.664 12.376C142.715 13.0026 143.495 13.4726 144.43 13.4726ZM138.767 16.7624C139.235 15.9269 139.183 15.0392 138.715 14.6214L130.143 8.61619C129.259 8.09399 127.908 8.72063 127.181 10.0261C126.402 11.3316 126.558 12.846 127.441 13.3159L136.949 17.7546C137.52 17.9634 138.351 17.5457 138.767 16.7624ZM150.041 16.7102C150.509 17.5457 151.288 17.9634 151.911 17.7024L161.367 13.2637C162.25 12.7415 162.406 11.2794 161.627 9.97389C160.848 8.66841 159.549 8.04177 158.665 8.56397L150.093 14.6214C149.625 15.0392 149.573 15.9269 150.041 16.7102ZM144.43 26.5274C145.365 26.5274 146.144 27.0496 146.248 27.624L147.132 38.1201C147.132 39.1645 145.937 40 144.43 40C142.923 40 141.728 39.1645 141.728 38.1201L142.664 27.624C142.715 26.9974 143.495 26.5274 144.43 26.5274ZM150.041 23.2898C150.509 22.4543 151.288 22.0366 151.911 22.2454L161.367 26.6841C162.25 27.2063 162.406 28.6684 161.627 29.9739C160.848 31.2794 159.549 31.906 158.665 31.3838L150.093 25.3786C149.625 25.0131 149.573 24.0731 150.041 23.2898ZM138.767 23.2898C139.235 24.0731 139.183 25.0131 138.715 25.4308L130.143 31.436C129.259 31.9582 127.908 31.3316 127.181 30.0261C126.402 28.7206 126.558 27.2585 127.441 26.7363L136.949 22.2976C137.52 22.0366 138.351 22.4543 138.767 23.2898ZM163.393 30.4961H163.497C163.601 30.4961 163.705 30.4439 163.705 30.3916C163.705 30.2872 163.653 30.2872 163.549 30.2872H163.445V30.4961H163.393ZM163.393 30.9661H163.185V30.1305H163.497C163.653 30.1305 163.705 30.1305 163.809 30.1828C163.861 30.235 163.913 30.2872 163.913 30.3394C163.913 30.4439 163.861 30.4961 163.757 30.5483C163.861 30.6005 163.913 30.6527 163.913 30.7572C163.913 30.9138 163.965 30.9138 163.965 30.9661H163.757C163.705 30.9138 163.705 30.8616 163.705 30.7572C163.705 30.6527 163.653 30.6527 163.549 30.6527H163.445L163.393 30.9661ZM163.497 29.8695C163.134 29.8695 162.874 30.1828 162.874 30.5483C162.874 30.9138 163.134 31.2272 163.497 31.2272C163.861 31.2272 164.121 30.9138 164.121 30.5483C164.173 30.1828 163.861 29.8695 163.497 29.8695ZM163.497 29.7128C163.965 29.7128 164.328 30.0783 164.328 30.5483C164.328 31.0183 163.965 31.3838 163.497 31.3838C163.03 31.3838 162.614 31.0183 162.614 30.5483C162.666 30.0783 163.03 29.7128 163.497 29.7128Z" fill="white" fill-opacity="0.5"/>
</g>
<defs>
<clipPath id="clip0_2020_6">
<rect width="164.384" height="40" fill="white" transform="translate(-0.00305176)"/>
</clipPath>
</defs>
</svg>
