<svg width="1017" height="452" viewBox="0 0 1017 452" fill="none" xmlns="http://www.w3.org/2000/svg">
<rect x="0.5" y="2" width="1016" height="450" fill="#15141D"/>
<mask id="mask0_2_2" style="mask-type:alpha" maskUnits="userSpaceOnUse" x="0" y="2" width="1017" height="450">
<rect x="1" y="2.5" width="1015" height="449" fill="#0E1330" stroke="#282D45"/>
</mask>
<g mask="url(#mask0_2_2)">
<g filter="url(#filter0_f_2_2)">
<circle cx="501.5" cy="399" r="60" fill="#5865F2"/>
</g>
<g filter="url(#filter1_f_2_2)">
<circle cx="76.5" cy="62" r="60" fill="#32CAFD"/>
</g>
<g filter="url(#filter2_f_2_2)">
<circle cx="954.5" cy="62" r="60" fill="#7214FF"/>
</g>
</g>
<mask id="mask1_2_2" style="mask-type:luminance" maskUnits="userSpaceOnUse" x="26" y="11" width="966" height="437">
<path d="M992 11H26V448H992V11Z" fill="white"/>
</mask>
<g mask="url(#mask1_2_2)">
<path d="M992 491.741C886.872 408.575 838.308 378.642 751.255 431.761C652.428 368.425 615.071 389.725 509 455.775C455.983 404.014 435.644 382.525 411.079 414.909C350.591 344.523 317.347 321.489 266.67 382.789C261.177 389.418 253.891 394.329 245.682 396.936C237.472 399.543 228.686 399.736 220.37 397.491C144.071 376.794 70.753 463.466 26 491.741H992Z" fill="#5865F2" fill-opacity="0.2"/>
<path d="M918.946 436.473C917.437 435.154 915.097 434.475 912.305 434.475C909.935 434.512 907.584 434.893 905.324 435.606L903.815 436.096C903.86 435.002 903.732 433.908 903.437 432.854C902.607 429.536 900.419 426.822 897.136 424.975C892.23 422.185 885.325 421.732 878.721 423.731C877.431 424.112 876.167 424.592 874.948 425.163C874.382 423.329 873.597 421.569 872.608 419.923C866.684 409.97 854.383 404.127 845.176 406.917C841.251 408.085 838.308 410.762 836.912 414.381C835.1 419.056 835.893 424.824 839.138 430.253C843.93 438.358 853.137 443.938 861.59 443.975C861.665 444.465 861.741 444.955 861.854 445.408C862.099 446.31 862.439 447.182 862.873 448.009H863.741C863.231 447.138 862.85 446.198 862.609 445.219C862.469 444.675 862.367 444.12 862.307 443.561C862.299 443.467 862.254 443.381 862.182 443.318C862.115 443.256 862.024 443.221 861.93 443.221H861.666C853.439 443.221 844.459 437.755 839.78 429.876C836.685 424.635 835.893 419.094 837.591 414.645C838.912 411.252 841.704 408.764 845.402 407.633C854.27 404.956 866.194 410.649 871.967 420.3C872.986 422.028 873.786 423.878 874.344 425.804C874.389 425.905 874.469 425.985 874.571 426.03C874.669 426.068 874.774 426.068 874.873 426.03C876.186 425.392 877.548 424.863 878.948 424.447C885.363 422.524 892.004 422.939 896.758 425.616C899.853 427.387 901.928 429.951 902.72 433.042C903.03 434.209 903.132 435.422 903.022 436.624C903.026 436.752 903.079 436.874 903.173 436.963C903.226 437.007 903.29 437.033 903.354 437.04C903.422 437.046 903.49 437.033 903.551 437.001L905.551 436.322C911.06 434.663 916.003 434.927 918.456 437.039C919.776 438.132 920.305 439.678 920.041 441.487C919.776 443.297 918.531 445.86 916.607 448.009H917.588C919.361 445.898 920.531 443.674 920.795 441.6C921.059 439.527 920.456 437.717 918.946 436.473Z" fill="#808AFF"/>
<path d="M65.9811 272.482C98.9233 255.894 122.205 268.75 122.205 268.75C138.507 263.698 152.846 267.242 160.279 273.01C164.883 276.629 154.544 275.988 131.337 275.988H66.849C66.3586 275.988 65.8883 275.794 65.5416 275.447C65.1948 275.101 65 274.631 65 274.141C65.003 273.803 65.0953 273.471 65.2676 273.18C65.4398 272.889 65.6859 272.648 65.9811 272.482Z" fill="#5865F2" fill-opacity="0.2"/>
<path d="M333.724 284.497C342.063 280.274 347.95 283.554 347.95 283.554C352.063 282.272 355.723 283.177 357.572 284.61C358.742 285.552 356.138 285.364 350.252 285.364H333.913C333.793 285.364 333.677 285.316 333.592 285.231C333.508 285.147 333.46 285.031 333.46 284.911C333.459 284.824 333.484 284.739 333.531 284.665C333.578 284.592 333.645 284.533 333.724 284.497Z" fill="#5865F2" fill-opacity="0.2"/>
<path d="M915.885 291.909C915.832 288.635 914.644 285.482 912.523 282.987C910.402 280.492 907.482 278.809 904.255 278.226C901.033 277.643 897.705 278.196 894.844 279.791C891.984 281.385 889.762 283.923 888.565 286.97C887.513 286.741 886.437 286.628 885.358 286.631C883.192 286.624 881.053 287.093 879.09 288.005C877.128 288.918 875.389 290.25 874 291.909H915.885Z" fill="#5865F2" fill-opacity="0.2"/>
<path d="M160.413 75.0002C158.15 75.0014 155.92 75.5507 153.916 76.601C151.912 77.6517 150.192 79.1721 148.904 81.0322C143.867 78.7397 138.278 77.9401 132.799 78.7287C127.321 79.5174 122.184 81.8608 118 85.4808H173.96C173.177 82.4848 171.423 79.8318 168.973 77.9363C166.522 76.0404 163.513 75.0082 160.413 75.0002Z" fill="#5865F2" fill-opacity="0.2"/>
<path d="M865.8 109.904C866.747 109.915 867.686 109.715 868.547 109.32C869.407 108.925 870.169 108.345 870.781 107.62C871.388 106.896 871.83 106.046 872.071 105.13C872.313 104.215 872.35 103.258 872.177 102.327C870.369 92.5837 865.434 83.6934 858.125 76.9979C850.812 70.3025 841.518 66.1657 831.646 65.2122C821.771 64.2584 811.858 66.54 803.398 71.7121C794.938 76.8841 788.391 84.6657 784.746 93.8821C781.373 93.1549 777.931 92.7881 774.483 92.7888C767.853 92.7779 761.291 94.1505 755.223 96.8185C749.155 99.4865 743.71 103.391 739.239 108.283C739.118 108.424 739.039 108.596 739.012 108.78C738.982 108.963 739.008 109.151 739.084 109.321C739.159 109.491 739.28 109.636 739.435 109.739C739.59 109.842 739.771 109.9 739.956 109.904H865.8Z" fill="#5865F2" fill-opacity="0.2"/>
<path d="M675.258 447.774H674.503C674.805 439.254 673.22 433.712 669.635 430.885C666.05 428.057 660.051 427.869 651.636 430.47C651.534 430.496 651.425 430.482 651.334 430.432C651.24 430.371 651.172 430.276 651.145 430.168C650.911 428.653 650.289 427.224 649.334 426.021C648.383 424.818 647.134 423.883 645.712 423.307C642.089 421.837 637.599 422.666 633.75 425.493C624.392 432.317 625.411 444.532 625.411 444.645C625.411 444.723 625.392 444.799 625.35 444.866C625.312 444.933 625.252 444.986 625.184 445.022C625.116 445.058 625.041 445.07 624.965 445.057C624.89 445.043 624.818 445.004 624.769 444.947C619.901 440.611 616.505 438.915 613.751 439.405C610.996 439.895 608.506 442.835 605.675 447.774H604.808C607.864 442.421 610.355 439.216 613.6 438.651C616.845 438.085 619.901 439.744 624.618 443.816C624.58 440.8 625.109 430.885 633.297 424.89C637.372 421.912 642.127 421.045 645.976 422.628C647.459 423.206 648.772 424.148 649.795 425.367C650.817 426.586 651.515 428.043 651.825 429.603C660.277 427.077 666.239 427.303 670.088 430.319C673.937 433.335 675.56 438.99 675.258 447.774Z" fill="#808AFF"/>
<path d="M204.028 161.583C202.644 160.682 201.469 159.475 200.584 158.049C199.7 156.622 199.129 155.011 198.912 153.329L198.029 147.459C198.008 147.33 197.943 147.212 197.846 147.128C197.749 147.043 197.626 146.998 197.5 147C197.373 146.998 197.25 147.043 197.153 147.128C197.056 147.212 196.991 147.33 196.971 147.459L196.089 153.329C195.854 155.005 195.275 156.61 194.392 158.034C193.51 159.458 192.343 160.669 190.972 161.583L190.266 162.042C190.182 162.08 190.11 162.144 190.063 162.227C190.015 162.309 189.994 162.405 190.002 162.5C189.994 162.596 190.015 162.692 190.063 162.774C190.11 162.856 190.182 162.921 190.266 162.959L190.972 163.417C192.339 164.36 193.5 165.589 194.381 167.027C195.262 168.465 195.843 170.078 196.089 171.764L196.971 177.542C196.991 177.671 197.056 177.788 197.153 177.873C197.25 177.957 197.373 178.002 197.5 178C197.626 178.002 197.749 177.957 197.846 177.873C197.943 177.788 198.008 177.671 198.029 177.542L198.912 171.764C199.139 170.073 199.714 168.453 200.598 167.013C201.48 165.573 202.65 164.346 204.028 163.417L204.734 162.959C204.819 162.921 204.889 162.856 204.937 162.774C204.985 162.692 205.006 162.596 204.999 162.5C205.006 162.405 204.985 162.309 204.937 162.227C204.889 162.144 204.819 162.08 204.734 162.042L204.028 161.583Z" fill="#91FFAD"/>
<path d="M783.476 189.021C782.748 188.577 782.129 187.991 781.659 187.303C781.189 186.615 780.881 185.84 780.755 185.031L780.315 182.233C780.299 182.169 780.26 182.112 780.205 182.07C780.15 182.028 780.082 182.004 780.013 182C779.941 181.999 779.873 182.022 779.815 182.065C779.76 182.107 779.724 182.167 779.711 182.233L779.271 185.031C779.139 185.842 778.826 186.617 778.353 187.305C777.877 187.993 777.253 188.578 776.522 189.021L776.137 189.254C776.096 189.281 776.063 189.316 776.041 189.356C776.016 189.396 776.003 189.441 776 189.487C776 189.534 776.014 189.579 776.038 189.62C776.06 189.661 776.096 189.695 776.137 189.72L776.522 189.954C777.256 190.402 777.88 190.992 778.353 191.684C778.826 192.376 779.139 193.155 779.271 193.969L779.711 196.767C779.724 196.833 779.76 196.893 779.815 196.936C779.873 196.978 779.941 197.001 780.013 197C780.082 196.997 780.15 196.972 780.205 196.931C780.26 196.889 780.299 196.831 780.315 196.767L780.755 193.969C780.881 193.156 781.189 192.378 781.659 191.686C782.127 190.994 782.748 190.403 783.476 189.954L783.888 189.72C783.927 189.694 783.957 189.659 783.976 189.618C783.996 189.577 784.004 189.532 783.998 189.487C784.001 189.443 783.993 189.399 783.974 189.359C783.954 189.318 783.924 189.282 783.888 189.254L783.476 189.021Z" fill="#3F99F2"/>
<path d="M850.006 366.606C849.194 366.081 848.508 365.388 847.987 364.576C847.466 363.763 847.126 362.849 846.987 361.894L846.459 358.614C846.459 358.534 846.428 358.457 846.372 358.401C846.315 358.344 846.236 358.313 846.157 358.313C846.074 358.312 845.991 358.343 845.93 358.398C845.866 358.454 845.825 358.531 845.817 358.614L845.327 361.894C845.179 362.851 844.832 363.767 844.308 364.579C843.779 365.391 843.085 366.082 842.27 366.606L841.855 366.87C841.813 366.902 841.776 366.941 841.753 366.986C841.727 367.032 841.708 367.082 841.704 367.134C841.704 367.188 841.715 367.24 841.746 367.287C841.772 367.333 841.81 367.371 841.855 367.398L842.27 367.662C843.081 368.189 843.772 368.882 844.3 369.694C844.825 370.505 845.176 371.419 845.327 372.374L845.817 375.654C845.825 375.738 845.866 375.815 845.93 375.87C845.991 375.926 846.074 375.957 846.157 375.956C846.236 375.956 846.315 375.924 846.372 375.868C846.428 375.811 846.459 375.734 846.459 375.654L846.987 372.374C847.13 371.421 847.474 370.509 847.994 369.697C848.515 368.885 849.198 368.192 850.006 367.662L850.421 367.398C850.47 367.375 850.511 367.337 850.538 367.29C850.564 367.243 850.575 367.189 850.572 367.134C850.572 367.081 850.557 367.028 850.53 366.982C850.504 366.936 850.466 366.897 850.421 366.87L850.006 366.606Z" fill="#404EED"/>
<path d="M365.949 367.964C365.642 367.769 365.382 367.509 365.186 367.203C364.991 366.897 364.864 366.552 364.817 366.192L364.628 364.985C364.628 364.956 364.616 364.927 364.595 364.905C364.574 364.884 364.545 364.872 364.515 364.872C364.485 364.872 364.456 364.884 364.435 364.905C364.414 364.927 364.402 364.956 364.402 364.985L364.213 366.192C364.165 366.552 364.039 366.897 363.843 367.203C363.648 367.509 363.388 367.769 363.081 367.964L362.892 368.077C362.855 368.077 362.855 368.152 362.855 368.19C362.853 368.21 362.856 368.231 362.862 368.25C362.868 368.27 362.879 368.288 362.892 368.303L363.081 368.378C363.38 368.582 363.634 368.844 363.828 369.149C364.023 369.453 364.154 369.794 364.213 370.15L364.402 371.394C364.402 371.425 364.414 371.453 364.435 371.474C364.456 371.495 364.485 371.507 364.515 371.507C364.545 371.507 364.574 371.495 364.595 371.474C364.616 371.453 364.628 371.425 364.628 371.394L364.817 370.15C364.876 369.794 365.007 369.453 365.201 369.149C365.396 368.844 365.65 368.582 365.949 368.378L366.138 368.303C366.151 368.288 366.161 368.27 366.168 368.25C366.175 368.231 366.177 368.21 366.175 368.19C366.175 368.152 366.175 368.077 366.138 368.077L365.949 367.964Z" fill="#FF78B9"/>
<path d="M381.873 416.332C381.716 416.239 381.582 416.113 381.477 415.964C381.373 415.814 381.302 415.644 381.269 415.465L381.194 414.824H381.08L380.967 415.465C380.94 415.642 380.876 415.811 380.779 415.961C380.681 416.11 380.552 416.237 380.401 416.332L380.326 416.408C380.316 416.408 380.306 416.412 380.299 416.419C380.292 416.426 380.288 416.436 380.288 416.446C380.288 416.456 380.292 416.465 380.299 416.472C380.306 416.479 380.316 416.483 380.326 416.483L380.401 416.559C380.552 416.654 380.681 416.781 380.779 416.931C380.876 417.08 380.94 417.249 380.967 417.426L381.08 418.067H381.194L381.269 417.426C381.302 417.247 381.373 417.077 381.477 416.927C381.582 416.778 381.716 416.652 381.873 416.559L381.948 416.483L381.873 416.332Z" fill="#FFC619"/>
<path d="M541.376 412.789C541.036 412.56 540.75 412.265 540.531 411.921C540.308 411.578 540.161 411.193 540.093 410.791L539.904 409.433C539.904 409.358 539.829 409.32 539.754 409.32C539.738 409.32 539.723 409.323 539.708 409.329C539.697 409.335 539.686 409.343 539.674 409.353C539.663 409.364 539.655 409.376 539.648 409.39C539.644 409.404 539.64 409.419 539.64 409.433L539.414 410.791C539.361 411.194 539.225 411.58 539.01 411.925C538.795 412.27 538.508 412.565 538.169 412.789L537.98 412.902C537.942 412.902 537.905 412.939 537.905 413.015C537.905 413.053 537.942 413.09 537.98 413.128L538.169 413.241C538.501 413.463 538.784 413.752 538.999 414.09C539.214 414.427 539.354 414.806 539.414 415.201L539.64 416.559C539.64 416.589 539.652 416.617 539.674 416.639C539.693 416.66 539.723 416.672 539.754 416.672C539.829 416.672 539.904 416.634 539.904 416.559L540.093 415.201C540.165 414.806 540.316 414.429 540.535 414.092C540.757 413.755 541.04 413.466 541.376 413.241L541.565 413.128C541.58 413.113 541.587 413.095 541.595 413.075C541.602 413.056 541.602 413.035 541.602 413.015C541.602 412.939 541.603 412.902 541.565 412.902L541.376 412.789Z" fill="#91FFAD"/>
<path d="M150.561 403.891C150.198 403.646 149.89 403.329 149.657 402.959C149.423 402.589 149.268 402.175 149.203 401.743L148.976 400.235C148.939 400.159 148.901 400.084 148.825 400.084C148.785 400.084 148.747 400.1 148.719 400.128C148.69 400.156 148.674 400.195 148.674 400.235L148.448 401.743C148.376 402.178 148.214 402.593 147.974 402.962C147.734 403.332 147.42 403.649 147.052 403.891L146.825 404.005C146.788 404.042 146.788 404.08 146.788 404.155C146.788 404.193 146.788 404.268 146.825 404.268L147.052 404.419C147.423 404.659 147.739 404.974 147.98 405.344C148.22 405.715 148.38 406.132 148.448 406.568L148.674 408.076C148.674 408.151 148.75 408.189 148.825 408.189C148.901 408.189 148.939 408.151 148.976 408.076L149.203 406.568C149.263 406.134 149.416 405.718 149.651 405.348C149.885 404.977 150.195 404.661 150.561 404.419L150.788 404.268C150.825 404.268 150.863 404.193 150.863 404.155C150.863 404.126 150.856 404.097 150.843 404.071C150.83 404.045 150.811 404.022 150.788 404.005L150.561 403.891Z" fill="#FF78B9"/>
<path d="M218.773 305.808C218.41 305.563 218.103 305.245 217.869 304.876C217.635 304.506 217.48 304.091 217.415 303.659L217.189 302.151C217.151 302.076 217.113 302 217.038 302C216.998 302 216.959 302.016 216.931 302.044C216.903 302.073 216.887 302.111 216.887 302.151L216.66 303.659C216.588 304.094 216.427 304.509 216.186 304.879C215.946 305.249 215.632 305.565 215.264 305.808L215.038 305.921C215 305.959 215 305.996 215 306.072C215 306.11 215 306.185 215.038 306.185L215.264 306.336C215.635 306.575 215.952 306.891 216.192 307.261C216.433 307.631 216.592 308.048 216.66 308.485L216.887 309.993C216.887 310.068 216.962 310.106 217.038 310.106C217.113 310.106 217.151 310.068 217.189 309.993L217.415 308.485C217.476 308.051 217.629 307.635 217.863 307.264C218.097 306.894 218.407 306.577 218.773 306.336L219 306.185C219.038 306.185 219.075 306.11 219.075 306.072C219.075 306.043 219.069 306.014 219.055 305.988C219.042 305.961 219.023 305.939 219 305.921L218.773 305.808Z" fill="#B756FE"/>
</g>
<defs>
<filter id="filter0_f_2_2" x="241.5" y="139" width="520" height="520" filterUnits="userSpaceOnUse" color-interpolation-filters="sRGB">
<feFlood flood-opacity="0" result="BackgroundImageFix"/>
<feBlend mode="normal" in="SourceGraphic" in2="BackgroundImageFix" result="shape"/>
<feGaussianBlur stdDeviation="100" result="effect1_foregroundBlur_2_2"/>
</filter>
<filter id="filter1_f_2_2" x="-233.5" y="-248" width="620" height="620" filterUnits="userSpaceOnUse" color-interpolation-filters="sRGB">
<feFlood flood-opacity="0" result="BackgroundImageFix"/>
<feBlend mode="normal" in="SourceGraphic" in2="BackgroundImageFix" result="shape"/>
<feGaussianBlur stdDeviation="125" result="effect1_foregroundBlur_2_2"/>
</filter>
<filter id="filter2_f_2_2" x="644.5" y="-248" width="620" height="620" filterUnits="userSpaceOnUse" color-interpolation-filters="sRGB">
<feFlood flood-opacity="0" result="BackgroundImageFix"/>
<feBlend mode="normal" in="SourceGraphic" in2="BackgroundImageFix" result="shape"/>
<feGaussianBlur stdDeviation="125" result="effect1_foregroundBlur_2_2"/>
</filter>
</defs>
</svg>
