<svg width="60" height="60" viewBox="0 0 60 60" fill="none" xmlns="http://www.w3.org/2000/svg">
<path d="M0 8.00447C0 6.07393 0.675695 4.48127 2.02703 3.22648C3.37836 1.97163 5.13515 1.34424 7.2973 1.34424C9.42087 1.34424 11.139 1.96196 12.4517 3.19752C13.8031 4.47165 14.4788 6.13184 14.4788 8.17821C14.4788 10.0315 13.8224 11.5759 12.5097 12.8114C11.1583 14.0856 9.38224 14.7226 7.18147 14.7226H7.12355C4.99998 14.7226 3.28187 14.0856 1.96911 12.8114C0.656351 11.5373 0 9.93495 0 8.00447ZM0.752896 58.6801V19.9929H13.61V58.6801H0.752896ZM20.7336 58.6801H33.5907V37.0778C33.5907 35.7264 33.7452 34.684 34.0541 33.9504C34.5946 32.6377 35.4151 31.5276 36.5154 30.6203C37.6158 29.7129 38.9961 29.2593 40.6564 29.2593C44.9807 29.2593 47.1429 32.1743 47.1429 38.0045V58.6801H60V36.4987C60 30.7844 58.6487 26.4504 55.9459 23.4967C53.2432 20.5431 49.6718 19.0662 45.2317 19.0662C40.251 19.0662 36.3707 21.2091 33.5907 25.4948V25.6106H33.5328L33.5907 25.4948V19.9929H20.7336C20.8108 21.2284 20.8494 25.0701 20.8494 31.518C20.8494 37.9658 20.8108 47.0199 20.7336 58.6801Z" fill="#1D68FF"/>
</svg>
