<svg width="60" height="60" viewBox="0 0 60 60" fill="none" xmlns="http://www.w3.org/2000/svg">
<path d="M58.7642 15.5733C58.0722 13.0033 56.0459 10.9769 53.4759 10.285C48.7807 9 29.9999 9 29.9999 9C29.9999 9 11.2191 9 6.52386 10.2356C4.00328 10.9275 1.9275 13.0033 1.23558 15.5733C0 20.2685 0 30.0049 0 30.0049C0 30.0049 0 39.7906 1.23558 44.4364C1.9275 47.0064 3.95385 49.0328 6.52386 49.7247C11.2685 51.0097 29.9999 51.0097 29.9999 51.0097C29.9999 51.0097 48.7807 51.0097 53.4759 49.7741C56.0459 49.0822 58.0722 47.0559 58.7642 44.4858C59.9997 39.7906 59.9997 30.0543 59.9997 30.0543C59.9997 30.0543 60.0492 20.2685 58.7642 15.5733Z" fill="#1D68FF"/>
<path d="M24.0195 38.9998L39.6373 30.0048L24.0195 21.0098V38.9998Z" fill="white"/>
</svg>
