<svg width="133" height="396" viewBox="0 0 133 396" fill="none" xmlns="http://www.w3.org/2000/svg">
<path d="M0 70L50.1887 124.015L66 129L75.7849 120.398L97.366 90.1965L115.434 97.0073L133 90.1965V396H2.50943L0 70Z" fill="url(#paint0_linear_94_15551)"/>
<path d="M66.6383 8.37699L86.1515 0.619385L95.4572 58.465C97.1765 69.4792 98.072 76.3013 98.1435 78.9311C106.802 91.7947 114.04 97.0704 119.855 94.7584C126.743 92.0203 128.415 85.8613 124.872 76.2812L129.004 74.6385C132.315 83.6019 133.53 91.4492 132.648 98.1805C131.823 104.8 128.962 109.083 124.065 111.03C120.009 112.643 116.333 112.199 113.035 109.699C109.739 107.199 104.919 101.317 98.5757 92.0528C97.2797 111.976 87.6021 125.527 69.5427 132.707C57.2224 137.605 45.5259 136.716 34.4534 130.04C23.3505 123.289 14.2397 110.96 7.12093 93.0534C0.123705 75.4528 -1.34262 60.1731 2.72197 47.2144C6.78614 34.2558 14.4045 25.5556 25.5771 21.1139C33.4588 17.9804 41.0354 18.2029 48.3069 21.7812C55.5784 25.3596 63.6754 32.6862 72.598 43.7609L66.6383 8.37699ZM74.4257 57.3886C65.9312 46.4981 58.0956 38.4915 50.9191 33.3688C43.7125 28.1696 37.0098 26.8022 30.8111 29.2665C16.8074 34.8338 16.3159 53.9934 29.3367 86.7454C41.6882 117.814 54.5598 130.686 67.9515 125.362C79.5829 120.738 82.7461 103.618 77.4412 74.0019L74.4257 57.3886Z" fill="white"/>
<defs>
<linearGradient id="paint0_linear_94_15551" x1="67.7547" y1="-6.51176" x2="67.7547" y2="396" gradientUnits="userSpaceOnUse">
<stop stop-color="#83AADF"/>
<stop offset="1" stop-color="#1D63F0"/>
</linearGradient>
</defs>
</svg>
