<svg width="101" height="465" viewBox="0 0 101 465" fill="none" xmlns="http://www.w3.org/2000/svg">
<path d="M20.9997 136.287L34.9997 97.1943L44.9997 57L64.9997 85.081L79.9997 114.263L94.9997 107.656L101 101.049V465H20.9997V136.287Z" fill="url(#paint0_linear_94_15549)"/>
<path d="M95.9342 85.3202L99.0566 84.5987C101.168 93.7347 101.23 100.725 99.2426 105.57C97.2556 110.414 94.0071 113.358 89.4969 114.4C85.8541 115.241 82.0419 114.691 78.0602 112.748C74.0786 110.805 69.3683 104.128 63.9294 92.7154L48.6944 60.7862L36.3955 125.39L20.0028 129.178L38.647 40.6321C34.2895 30.7362 30.1485 23.6225 26.224 19.2911C22.2995 14.9596 18.2845 13.2682 14.1791 14.2168C10.8833 14.9784 8.30829 16.8829 6.45426 19.9305C4.60023 22.978 4.11434 27.2017 4.99658 32.6015L1.87417 33.323C0.0836153 24.783 0.219496 17.5947 2.28181 11.7581C4.34413 5.92153 7.79715 2.41319 12.6409 1.23307C15.7633 0.511588 19.0062 1.10229 22.3695 3.00516C25.7329 4.90803 29.1768 8.7414 32.7014 14.5052C36.226 20.2691 42.4145 32.422 51.2671 50.9639L63.7783 77.0356C68.8967 87.8521 73.2556 94.8545 76.8551 98.0429C80.4546 101.231 84.198 102.407 88.0855 101.569C94.5616 100.073 97.1778 94.6566 95.9342 85.3202Z" fill="white"/>
<defs>
<linearGradient id="paint0_linear_94_15549" x1="50.8129" y1="-12.1583" x2="50.8129" y2="465" gradientUnits="userSpaceOnUse">
<stop stop-color="#83AADF"/>
<stop offset="1" stop-color="#1D63F0"/>
</linearGradient>
</defs>
</svg>
