<svg width="108" height="368" viewBox="0 0 108 368" fill="none" xmlns="http://www.w3.org/2000/svg">
<path d="M9.09285 88.1112L32.8042 78.39L39.5052 14.509L51.8764 7.99991L67.8557 18.0138L72.4949 92.6174H92.0825L106 75.5938V368H6.00007L9.09285 88.1112Z" fill="url(#paint0_linear_94_15548)"/>
<path d="M0.962891 31.9877L4.82795 32.273C8.83616 27.7547 10.4108 14.3901 34.0306 17.006C33.1717 74.2694 7.97725 80.3096 9.55191 92.0572C10.1245 98.7157 15.4211 102.806 21.1471 103.044C39.2317 102.425 38.4205 78.1218 44.0511 16.8633H67.3846C66.144 38.456 62.7561 60.0486 62.3744 81.2133C62.6607 95.2913 71.2497 102.806 82.5585 102.901C101.168 103.519 107.037 81.8791 107.037 72.6523H103.029C102.647 80.2621 98.9731 85.7316 91.1476 86.0645C69.8182 86.3499 81.5565 48.6816 81.6996 17.1486L107.037 17.2913L106.894 1.16814C1.58125 0.659673 14.9485 -1.3982 0.962891 31.9877Z" fill="white"/>
<defs>
<linearGradient id="paint0_linear_94_15548" x1="54.0001" y1="44.4508" x2="54.0001" y2="368" gradientUnits="userSpaceOnUse">
<stop stop-color="#83AADF"/>
<stop offset="1" stop-color="#1D63F0"/>
</linearGradient>
</defs>
</svg>
