<svg width="78" height="409" viewBox="0 0 78 409" fill="none" xmlns="http://www.w3.org/2000/svg">
<path d="M1 92L14 85.5L38 88L66.5 85.5L77 67V409H1V92Z" fill="url(#paint0_linear_94_15552)"/>
<path d="M0.541992 0.75708H71.207L73.083 24.4503H70.4428C70.1185 19.7718 69.331 16.2051 68.0804 13.7501C66.8298 11.2486 65.1159 9.44208 62.9388 8.33058C60.7617 7.21896 57.3108 6.66314 52.5861 6.66314H20.416L49.1118 43.4885L16.4553 82.0498H52.2385C58.7235 82.0498 63.6799 81.0075 67.1076 78.9231C70.5354 76.8386 73.1063 72.4844 74.8203 65.8603L77.4605 66.4857L73.4307 94.9733H0.545743V92.472L36.8154 49.6695L0.545743 3.25574L0.541992 0.75708Z" fill="white"/>
<defs>
<linearGradient id="paint0_linear_94_15552" x1="39.0012" y1="0.75708" x2="39.0012" y2="409" gradientUnits="userSpaceOnUse">
<stop stop-color="#83AADF"/>
<stop offset="1" stop-color="#1D67FC"/>
</linearGradient>
</defs>
</svg>
